<?xml version="1.0" standalone="no"?>
<!DOCTYPE svg PUBLIC "-//W3C//DTD SVG 20010904//EN"
 "http://www.w3.org/TR/2001/REC-SVG-20010904/DTD/svg10.dtd">
<svg version="1.0" xmlns="http://www.w3.org/2000/svg"
 width="6839.000000pt" height="3453.000000pt" viewBox="0 0 6839.000000 3453.000000"
 preserveAspectRatio="xMidYMid meet">

<g transform="translate(0.000000,3453.000000) scale(0.100000,-0.100000)"
fill="#000000" stroke="none">
<path d="M28430 33048 c-19 -5 -145 -61 -279 -124 -772 -365 -1326 -557 -1781
-620 -25 -3 -54 -8 -65 -10 -11 -2 -45 -7 -75 -10 -30 -3 -68 -8 -85 -10 -71
-10 -249 -19 -370 -19 -154 0 -285 9 -412 30 -18 3 -50 7 -70 11 -81 11 -283
68 -383 106 -142 54 -173 61 -257 55 -188 -14 -339 -164 -351 -350 -4 -64 10
-140 126 -687 359 -1689 950 -4583 932 -4564 -4 5 -18 41 -30 79 -62 193 -241
669 -316 843 -111 257 -311 660 -415 837 -292 498 -541 771 -823 900 -72 33
-263 86 -378 105 -35 5 -74 12 -88 14 -198 35 -424 49 -765 49 -346 0 -464 -6
-955 -48 -90 -8 -211 -20 -295 -31 -38 -4 -54 -6 -155 -19 -25 -3 -63 -8 -85
-10 -63 -8 -129 -17 -145 -20 -24 -4 -92 -14 -140 -20 -49 -7 -78 -11 -160
-25 -30 -5 -73 -12 -94 -15 -21 -3 -48 -7 -60 -10 -12 -2 -37 -7 -56 -9 -19
-3 -71 -12 -115 -20 -44 -9 -96 -18 -115 -21 -90 -15 -422 -90 -599 -135 -995
-253 -1632 -623 -1875 -1089 -43 -83 -43 -84 -49 -50 -3 19 -58 389 -122 823
-75 507 -123 807 -136 840 -57 149 -198 246 -358 246 -56 0 -115 -15 -778
-196 -1152 -314 -2822 -806 -2926 -862 -62 -33 -122 -99 -155 -170 -20 -44
-27 -77 -30 -142 -3 -85 -2 -88 228 -920 432 -1561 1026 -3745 1474 -5415 522
-1951 1316 -4966 1316 -5000 0 -27 -308 -108 -392 -103 l-52 3 -29 70 c-965
2318 -2146 5927 -2906 8879 -55 212 -110 407 -122 431 -31 61 -116 140 -186
173 -48 22 -72 26 -143 27 -75 0 -113 -8 -325 -68 -1482 -421 -2766 -813
-4115 -1259 -616 -203 -1185 -400 -1233 -426 -110 -59 -178 -173 -185 -309 -6
-106 6 -141 113 -340 421 -779 1021 -2108 1522 -3368 591 -1486 1039 -2734
1493 -4150 277 -865 347 -1102 464 -1570 136 -547 220 -938 206 -964 -14 -28
-107 -86 -233 -146 -102 -49 -227 -99 -233 -93 -6 7 -477 1049 -672 1488 -460
1037 -743 1700 -1189 2790 -881 2152 -1508 3810 -2163 5715 -323 939 -818
2323 -862 2409 -30 58 -111 134 -175 163 -67 31 -186 42 -256 25 -74 -19
-1206 -519 -1992 -880 -295 -136 -347 -163 -392 -205 -92 -86 -136 -216 -115
-336 7 -39 149 -384 417 -1013 224 -524 445 -1043 492 -1153 593 -1391 1833
-4089 2801 -6090 936 -1937 1317 -2697 1959 -3910 911 -1720 1451 -2643 1976
-3378 106 -149 177 -193 347 -216 87 -11 319 -15 400 -6 142 15 186 22 330 51
350 70 846 250 1399 508 310 144 488 250 736 436 254 191 285 232 329 432 104
467 136 1066 95 1803 -55 1011 -255 2447 -558 4020 -10 55 -17 103 -15 106 2
4 16 9 31 11 53 9 355 78 363 83 4 2 35 -62 70 -143 464 -1092 837 -1876 1275
-2677 534 -978 904 -1540 1316 -2000 261 -291 324 -334 500 -336 70 -1 89 5
354 101 642 233 1649 582 2249 779 168 55 324 110 346 121 94 48 168 143 196
249 18 70 15 139 -27 721 -93 1301 -365 3894 -715 6814 -25 208 -43 380 -40
383 2 3 9 -10 14 -29 46 -165 256 -616 363 -778 76 -114 234 -281 333 -348
171 -118 416 -206 635 -228 31 -3 81 -9 111 -13 63 -8 423 -6 520 3 36 3 94 8
130 12 36 3 76 7 90 9 14 2 51 7 83 10 32 4 66 8 76 10 10 2 42 6 71 10 29 4
62 9 74 11 11 2 38 6 61 9 22 3 63 10 90 15 28 5 61 11 75 14 73 12 124 22
330 63 124 25 243 49 265 54 86 17 326 72 463 105 79 19 146 33 148 31 2 -2
-85 -27 -194 -57 -1053 -283 -3062 -899 -3182 -975 -53 -34 -119 -110 -148
-173 -24 -50 -27 -69 -26 -152 l0 -95 293 -885 c161 -487 421 -1274 577 -1750
1580 -4792 4203 -12647 4261 -12763 84 -168 309 -251 481 -177 23 11 262 165
530 343 1618 1077 2721 1725 4097 2407 969 480 1761 827 2540 1112 105 38 208
80 230 93 105 61 175 175 183 299 4 65 -14 151 -227 1076 -241 1044 -261 1124
-368 1480 -307 1024 -656 1854 -1041 2480 -94 152 -258 392 -303 443 -47 54
-131 99 -313 167 -589 220 -1266 367 -1931 419 -77 6 -168 14 -203 17 l-63 6
103 60 c440 259 634 378 859 529 211 142 456 324 522 387 34 34 63 78 101 157
136 279 204 545 236 920 14 154 13 698 0 924 -11 187 -55 598 -96 899 -63 468
-227 1084 -374 1407 -132 290 -160 344 -264 520 -171 290 -294 447 -540 688
-122 119 -223 198 -374 290 -53 32 -78 53 -70 58 7 3 47 11 88 18 41 6 85 13
96 15 12 2 39 7 60 10 22 4 91 15 154 26 63 10 133 22 155 25 23 3 52 7 65 10
13 3 42 7 65 10 22 3 47 8 55 10 8 2 35 6 60 9 25 3 54 8 65 10 11 2 40 7 65
10 25 3 54 8 65 10 11 2 40 7 65 10 25 3 54 8 65 10 11 2 43 7 70 10 48 7 61
9 130 20 17 3 53 8 80 12 28 3 57 8 66 9 9 2 40 6 69 10 29 4 62 9 74 11 12 2
37 7 56 10 98 18 210 106 256 201 55 112 57 88 -60 1068 -58 490 -109 907
-112 928 -3 20 -2 37 3 37 5 0 15 -51 22 -112 26 -228 98 -602 156 -807 118
-420 270 -645 551 -814 125 -75 372 -157 562 -187 37 -6 78 -13 92 -15 23 -4
116 -13 200 -20 50 -4 664 -4 728 0 113 8 229 16 267 20 22 2 70 7 106 10 37
3 82 8 100 10 19 2 59 7 89 10 58 6 102 11 173 20 23 3 62 8 87 11 25 3 56 7
70 9 14 2 45 7 70 10 25 3 56 8 70 10 14 2 45 7 70 10 25 3 56 8 70 10 14 2
43 6 65 10 23 3 50 7 62 9 12 3 43 8 70 12 26 3 57 8 68 10 10 2 35 6 55 9 20
3 47 7 60 10 13 3 40 7 60 10 20 3 47 7 60 10 13 3 40 7 60 10 20 3 47 7 60
10 40 8 150 27 225 40 22 3 60 10 85 15 25 5 74 14 110 20 36 7 97 18 135 25
39 8 111 21 160 30 50 10 133 26 185 36 52 10 109 21 125 24 72 11 998 195
1210 240 223 47 606 124 875 175 118 22 238 44 265 50 28 5 66 12 85 15 19 3
42 8 50 10 8 2 33 6 55 10 22 3 47 7 55 10 8 2 31 6 50 9 19 3 61 10 93 15
187 32 324 177 334 355 5 75 -24 237 -258 1485 -114 608 -114 607 -218 702
-51 48 -78 63 -130 79 -77 23 -113 26 -236 16 -87 -6 -122 -9 -285 -21 -89 -6
-183 -14 -265 -20 -33 -3 -89 -7 -125 -10 -115 -9 -194 -16 -244 -20 -26 -3
-78 -7 -115 -10 -36 -3 -90 -8 -118 -10 -52 -5 -104 -10 -220 -20 -32 -3 -80
-8 -108 -10 -27 -3 -75 -8 -105 -10 -30 -3 -77 -8 -105 -10 -27 -3 -72 -8
-100 -10 -27 -3 -66 -7 -85 -10 -19 -2 -66 -7 -105 -11 -94 -8 -132 -12 -185
-19 -25 -3 -70 -7 -100 -10 -137 -12 -168 -17 -215 -32 -187 -59 -310 -200
-365 -416 -15 -62 -60 -456 -60 -531 0 -19 -58 -37 -347 -110 -209 -52 -375
-89 -457 -102 -21 -3 -47 -7 -58 -9 -11 -3 -46 -7 -77 -11 -31 -3 -60 -7 -65
-8 -13 -2 -22 40 -45 199 -55 380 -76 904 -68 1690 15 1335 60 2036 158 2455
27 116 26 115 101 114 88 -1 207 -52 671 -288 210 -106 429 -213 486 -237
l103 -44 -6 -130 c-15 -294 -64 -677 -103 -798 -28 -90 -65 -165 -119 -241
-98 -139 -84 -345 34 -477 82 -92 233 -147 562 -203 19 -3 46 -8 60 -11 13 -3
40 -7 60 -10 20 -3 47 -7 60 -10 13 -3 40 -7 60 -10 20 -3 46 -7 57 -9 12 -3
46 -7 75 -10 29 -4 62 -8 73 -10 11 -2 47 -7 80 -10 33 -4 76 -9 95 -11 131
-15 122 -14 305 -30 293 -25 891 -26 1070 -1 11 1 45 6 75 10 144 20 334 80
438 138 29 17 55 29 57 27 1 -2 13 -69 24 -149 69 -459 128 -771 217 -1145
179 -751 371 -1356 550 -1733 61 -131 101 -188 199 -291 185 -194 396 -338
650 -441 219 -89 734 -236 945 -270 36 -5 74 -12 86 -14 12 -2 45 -7 74 -11
29 -4 61 -8 70 -10 28 -5 162 -21 255 -30 302 -29 461 -35 820 -35 294 0 399
3 525 15 30 3 86 8 123 11 38 3 83 7 100 9 18 3 55 7 82 10 28 3 62 8 78 10
15 3 39 7 55 10 15 2 43 7 62 10 358 61 746 186 1034 333 263 135 484 298 676
498 717 752 1278 2089 1460 3484 46 358 77 875 66 1114 -4 77 -4 137 0 134 8
-8 40 -428 54 -703 38 -786 58 -2301 41 -3275 -12 -709 -21 -963 -47 -1380
-28 -440 -28 -471 -10 -527 37 -111 137 -212 246 -248 85 -28 215 -19 293 22
39 19 180 15 638 -22 85 -7 148 -13 314 -30 22 -2 67 -7 100 -10 33 -3 74 -8
90 -10 154 -22 277 16 368 114 53 57 94 135 102 196 3 22 19 200 35 395 63
761 200 1918 286 2420 61 353 110 565 192 825 l29 90 174 0 c153 0 273 -6 374
-19 17 -3 55 -7 85 -10 30 -3 64 -8 76 -10 12 -2 45 -7 74 -11 29 -4 60 -8 69
-10 15 -2 62 -10 134 -21 58 -9 93 -15 107 -19 8 -2 35 -7 60 -10 73 -10 274
-55 370 -83 l65 -19 -3 -44 c-14 -187 -106 -758 -183 -1139 -69 -335 -122
-552 -223 -904 -254 -881 -397 -1262 -500 -1325 -48 -30 -108 -98 -134 -153
-84 -173 -29 -377 132 -488 61 -41 230 -132 328 -175 l86 -38 -37 -27 c-127
-93 -180 -226 -161 -405 33 -309 -14 -1198 -150 -2845 -84 -1003 -233 -2616
-244 -2627 -2 -2 -6 20 -10 49 -51 406 -191 1063 -296 1392 -180 562 -435 940
-750 1114 -151 83 -919 345 -1495 511 -821 235 -1604 372 -2540 443 -265 20
-1005 17 -1225 -5 -662 -67 -1118 -196 -1525 -432 -272 -157 -541 -393 -702
-615 -174 -240 -294 -645 -392 -1330 -49 -339 -107 -880 -127 -1187 -4 -57
-11 -103 -15 -103 -5 0 -9 11 -9 24 0 78 -267 1135 -385 1526 -14 47 -27 92
-29 101 -3 9 -15 49 -27 90 -13 41 -23 76 -24 79 -16 59 -30 105 -45 147 -11
29 -22 64 -24 78 -3 14 -13 51 -24 82 -11 32 -27 85 -37 118 -9 33 -20 71 -25
85 -5 14 -57 174 -115 355 -59 182 -111 335 -115 340 -5 6 -13 30 -20 55 -7
25 -27 83 -45 130 -18 47 -76 195 -129 330 -236 606 -356 852 -584 1199 -112
171 -157 204 -412 299 -466 174 -1127 301 -1835 352 -957 68 -2348 6 -3243
-146 -544 -92 -1326 -301 -1787 -479 -323 -124 -589 -303 -650 -437 -41 -90
-43 -123 -26 -413 6 -99 13 -234 16 -300 7 -155 15 -310 20 -405 3 -41 7 -136
10 -210 4 -74 8 -162 10 -195 2 -33 6 -134 9 -225 4 -91 9 -230 12 -310 3 -80
9 -287 13 -460 8 -288 10 -320 30 -371 50 -131 135 -204 301 -257 105 -35 334
-88 495 -116 847 -146 1742 -152 2780 -20 314 40 405 63 557 141 161 82 232
190 231 353 0 74 -7 109 -56 274 -32 105 -54 193 -50 197 21 20 690 247 910
308 240 68 515 108 596 87 62 -15 305 -419 412 -686 71 -176 141 -458 119
-480 -21 -21 -738 -143 -1409 -240 -2276 -330 -3488 -724 -3842 -1250 -173
-257 -212 -604 -128 -1146 56 -359 228 -1169 362 -1699 209 -832 395 -1405
532 -1635 197 -331 605 -472 1251 -431 454 29 974 119 1421 245 500 142 1670
446 1712 446 7 0 53 -75 102 -168 101 -187 145 -240 239 -286 78 -37 183 -45
276 -21 354 91 1232 342 1550 442 384 121 704 250 824 332 122 84 274 263 351
413 22 43 43 78 46 78 3 0 13 -35 23 -78 43 -184 142 -429 209 -517 44 -57
173 -183 235 -228 81 -59 263 -149 377 -186 560 -181 1407 -184 2960 -10 342
38 633 74 2492 309 812 102 1224 149 1770 199 277 26 317 31 367 54 74 34 149
106 184 177 l29 57 6 -231 c9 -337 28 -444 101 -539 42 -55 120 -113 176 -131
36 -12 187 -17 765 -26 738 -11 975 -18 1573 -46 189 -9 363 -13 387 -9 115
17 243 121 285 233 39 102 37 137 -29 512 -148 842 -260 1567 -301 1945 -23
220 -42 496 -35 504 11 10 232 -20 405 -55 337 -68 658 -160 855 -246 88 -38
216 -109 232 -130 18 -22 61 -152 93 -276 115 -460 176 -1030 200 -1887 6
-209 15 -405 20 -437 12 -80 56 -165 118 -226 122 -121 439 -234 1347 -482 39
-11 120 -33 180 -50 61 -16 137 -37 170 -46 33 -9 80 -22 105 -29 25 -8 106
-30 180 -50 74 -21 284 -80 465 -132 284 -81 341 -95 406 -95 95 -1 161 21
236 76 75 56 117 127 146 245 22 90 35 114 35 66 0 -70 106 -206 199 -253 22
-11 93 -33 159 -47 297 -66 1102 -270 1624 -412 151 -41 307 -83 345 -93 39
-11 189 -54 335 -95 146 -42 299 -86 340 -97 199 -53 379 21 463 191 30 61 32
72 32 171 0 102 -1 108 -52 240 -142 372 -191 633 -149 795 37 140 2 272 -98
370 -59 58 -73 66 -501 262 -862 396 -1633 738 -1698 753 -105 24 -234 -3
-317 -66 -62 -47 -122 -133 -139 -200 -62 -236 -215 -619 -427 -1067 l-89
-189 -7 184 c-12 357 -81 658 -241 1063 -228 578 -657 1277 -1262 2058 -37 48
-66 89 -64 90 5 4 547 106 829 156 124 22 407 68 630 101 798 120 1093 174
1263 230 337 113 437 313 326 653 -154 470 -628 991 -1399 1539 -187 132
-1425 866 -1508 893 -39 13 -75 16 -145 13 -144 -7 -136 -1 -562 -383 -449
-404 -916 -849 -1404 -1339 l-343 -345 -112 30 c-61 17 -116 32 -123 34 -11 4
35 148 285 885 152 447 343 1000 447 1295 31 88 65 187 77 220 60 179 792
1995 899 2232 10 24 19 45 19 48 0 4 9 25 19 48 80 176 97 251 82 348 -20 124
-96 228 -209 285 -56 28 -61 29 -222 30 -190 1 -250 12 -945 174 -679 158
-825 194 -825 203 0 5 12 6 28 3 15 -3 68 -8 117 -12 50 -3 99 -7 110 -8 35
-3 144 23 187 45 60 31 131 101 161 162 30 59 41 113 57 301 14 157 49 376 89
551 16 72 75 342 131 600 128 592 198 870 312 1248 l20 67 47 -5 c26 -3 56 -7
67 -9 10 -2 39 -7 64 -11 361 -55 1091 -259 1380 -385 l85 -37 -3 -89 c-6
-205 -108 -928 -192 -1360 -87 -455 -140 -650 -272 -1014 -16 -44 -19 -73 -16
-140 8 -159 71 -248 244 -347 318 -180 792 -356 1139 -422 61 -11 119 -23 131
-25 79 -16 150 -21 304 -21 199 0 287 15 406 70 88 40 136 87 196 190 138 241
216 434 317 790 61 216 79 291 136 565 l52 255 7 -80 c37 -470 109 -680 318
-926 183 -215 539 -439 1083 -682 497 -222 1331 -543 2130 -819 386 -133 931
-328 1360 -486 209 -77 535 -197 724 -266 189 -70 360 -130 379 -134 65 -14
179 4 248 38 55 27 100 69 381 363 175 182 487 505 693 717 207 212 385 401
397 420 95 157 52 395 -91 500 l-40 30 70 0 c122 0 228 38 306 108 78 70 108
140 152 347 52 252 61 371 61 865 0 414 -2 470 -22 621 -85 632 -222 1039
-452 1348 -104 140 -247 262 -541 463 -430 294 -1094 656 -1875 1023 -1228
576 -2164 913 -2827 1016 -145 22 -420 38 -508 28 -145 -16 -176 -22 -248 -45
-258 -84 -489 -299 -705 -659 -88 -145 -197 -364 -280 -560 -141 -333 -342
-950 -443 -1359 -32 -132 -54 -197 -38 -111 12 63 8 803 -5 985 -37 521 -80
768 -176 1026 -84 224 -217 458 -304 537 -53 48 -97 69 -271 132 -363 133
-818 253 -1130 300 -50 7 -276 34 -335 40 -227 21 -1026 34 -1280 20 -118 -7
-256 -16 -309 -21 -75 -7 -200 -22 -236 -29 -8 -1 -33 -6 -55 -9 l-41 -7 -28
88 c-71 222 -233 571 -315 679 -61 81 -107 108 -275 164 -495 162 -1098 306
-1441 344 -22 3 -83 10 -135 16 -234 26 -403 33 -800 34 -299 0 -475 -5 -594
-19 -17 -2 -58 -6 -91 -10 -77 -8 -116 -14 -190 -27 -116 -20 -115 -20 -115
-5 0 8 12 41 27 73 32 70 42 187 24 270 -17 73 -79 163 -144 208 -83 57 -129
69 -302 81 -44 3 -98 8 -120 10 -22 2 -71 7 -110 10 -38 3 -99 10 -135 15 -36
5 -92 12 -125 15 -33 3 -71 8 -85 10 -32 5 -87 13 -225 30 -58 7 -193 26 -215
30 -8 2 -37 6 -65 9 -51 7 -101 14 -145 21 -14 2 -47 7 -75 10 -44 6 -195 28
-265 40 -14 2 -47 7 -75 11 -27 3 -57 8 -66 9 -9 2 -40 6 -70 10 -30 3 -79 10
-109 15 -30 5 -73 12 -95 15 -22 4 -51 8 -65 10 -14 2 -47 7 -75 10 -27 4 -93
13 -145 21 -52 8 -111 17 -130 20 -19 3 -46 7 -60 9 -14 2 -47 7 -75 10 -48 6
-144 20 -195 29 -37 7 -89 14 -145 21 -27 3 -61 8 -75 11 -14 2 -34 6 -45 8
-11 2 -42 7 -70 10 -27 4 -66 10 -85 14 -19 3 -73 6 -120 6 -75 1 -93 -3 -150
-30 -56 -27 -117 -77 -155 -126 -18 -24 -55 -112 -63 -153 l-9 -40 -12 60
c-52 253 -120 457 -222 660 -90 182 -177 303 -319 446 -140 140 -240 209 -427
291 -620 272 -1461 513 -2210 633 -18 3 -45 7 -60 10 -16 2 -50 7 -78 10 -27
4 -61 8 -75 10 -14 2 -50 7 -80 10 -30 3 -66 8 -80 10 -14 2 -52 6 -85 10 -33
3 -80 8 -105 10 -68 7 -147 14 -230 20 -41 3 -93 8 -115 10 -22 2 -74 6 -115
10 -41 3 -93 8 -115 10 -22 2 -85 6 -140 10 -55 3 -116 8 -135 10 -19 3 -78 7
-130 10 -52 3 -131 7 -175 10 -294 16 -418 19 -820 19 -527 1 -715 -9 -965
-49 -14 -3 -43 -7 -65 -10 -81 -12 -323 -75 -425 -110 -212 -73 -463 -212
-603 -336 -278 -245 -434 -744 -454 -1452 -3 -120 -9 -214 -13 -210 -4 4 -15
33 -25 63 -41 130 -153 399 -240 575 -119 242 -244 432 -372 566 -216 225
-307 267 -872 409 -288 72 -742 171 -851 186 -25 3 -48 8 -51 10 -3 2 -34 8
-70 13 -35 6 -75 13 -89 16 -13 2 -40 7 -60 10 -20 3 -45 7 -56 9 -12 2 -45 7
-74 11 -29 4 -62 8 -73 11 -10 2 -45 6 -76 9 -31 3 -69 8 -86 10 -16 3 -48 7
-70 10 -37 4 -62 6 -200 19 -96 10 -259 21 -450 31 -116 7 -875 7 -980 0 -160
-9 -261 -16 -301 -20 -23 -3 -65 -7 -95 -10 -65 -6 -145 -15 -179 -20 -14 -2
-45 -7 -70 -10 -59 -8 -99 -14 -130 -20 -14 -3 -41 -7 -60 -10 -102 -17 -374
-80 -494 -115 -649 -190 -1136 -527 -1450 -1004 -133 -202 -202 -402 -250
-723 -95 -631 -108 -1984 -31 -3103 22 -306 53 -669 70 -807 16 -124 18 -170
10 -161 -6 6 -15 77 -120 983 -383 3303 -545 5035 -615 6550 -41 899 -10 1703
74 1943 38 106 28 221 -27 325 -60 115 -180 188 -315 192 -42 2 -93 -2 -112
-7z m90 -384 c0 -3 -9 -40 -19 -82 -71 -284 -96 -681 -88 -1367 4 -258 11
-564 17 -680 49 -976 121 -1901 246 -3165 19 -195 37 -389 40 -430 7 -102 52
-529 130 -1234 36 -324 63 -596 61 -605 -1 -9 -9 43 -16 114 -8 72 -18 136
-24 143 -5 7 -7 28 -4 47 3 19 2 35 -4 35 -5 0 -9 -6 -9 -12 0 -9 -4 -8 -10 2
-15 23 -12 33 6 26 15 -6 16 1 10 55 -3 34 -12 69 -19 77 -9 13 -9 14 1 8 12
-7 17 6 6 17 -7 6 -12 61 -13 122 -1 22 -3 26 -10 15 -5 -8 -8 -17 -6 -21 6
-9 -89 2 -95 11 -3 4 -22 10 -42 14 -21 4 -38 11 -38 16 0 6 -8 10 -19 10 -10
0 -24 7 -31 15 -7 8 -23 15 -36 15 -23 0 -63 17 -74 31 -3 4 -20 10 -38 14
-18 4 -36 13 -39 21 -3 8 -17 14 -32 14 -14 1 -42 10 -61 20 -19 11 -43 22
-52 26 -10 3 -18 13 -18 20 0 10 -13 14 -40 14 -22 0 -40 5 -40 10 0 6 -11 10
-24 10 -13 0 -26 7 -30 15 -3 8 -16 15 -29 15 -14 0 -30 7 -37 15 -7 8 -19 15
-26 15 -8 0 -14 5 -14 10 0 6 -10 10 -22 10 -29 1 -97 32 -123 57 -12 11 -38
23 -58 27 -20 4 -37 11 -37 16 0 6 -8 10 -18 10 -9 0 -29 11 -44 25 -15 14
-37 25 -48 25 -26 0 -100 37 -100 50 0 6 -7 10 -15 10 -8 0 -15 5 -15 10 0 6
-10 10 -22 10 -27 0 -81 26 -158 75 -30 19 -62 34 -71 35 -9 0 -22 6 -28 14
-7 8 -24 17 -39 21 -30 7 -82 48 -82 65 0 5 -18 10 -40 10 -22 0 -40 4 -40 9
0 5 -8 12 -17 15 -39 15 -63 31 -63 43 0 7 -11 13 -24 13 -13 0 -26 4 -28 9
-1 5 -10 11 -18 13 -16 3 -30 18 -30 31 0 5 6 5 13 2 6 -4 4 0 -6 8 -16 14
-16 15 5 31 l23 17 -23 -6 c-17 -5 -24 -1 -31 17 -6 13 -10 19 -10 13 0 -23
65 -316 69 -311 3 2 3 -30 0 -73 -5 -61 -14 -94 -43 -155 -20 -43 -34 -83 -30
-89 3 -5 2 -7 -4 -4 -6 4 -25 -16 -43 -44 -47 -73 -137 -167 -181 -190 -42
-21 -90 -25 -120 -8 -33 17 -155 309 -256 608 -30 91 -56 167 -57 167 -1 2
-279 -43 -286 -46 -3 -1 -15 -1 -27 0 -16 1 -23 -4 -24 -17 -2 -67 -51 156
-223 1017 -267 1338 -560 2758 -822 3984 -57 269 -103 490 -101 492 1 1 36
-11 77 -28 144 -57 408 -125 559 -143 30 -4 63 -9 75 -11 130 -25 608 -25 796
1 19 3 58 7 85 10 105 12 132 16 215 30 145 25 320 64 451 100 349 97 860 299
1374 544 189 90 205 96 205 85z m-11461 -3134 c11 -80 70 -480 130 -890 239
-1619 601 -4178 601 -4244 0 -7 -33 -25 -72 -41 -774 -298 -1765 -716 -2515
-1061 -102 -47 -186 -84 -188 -82 -2 2 -91 332 -200 733 -272 1010 -746 2745
-1044 3825 -137 498 -247 908 -243 911 8 8 693 216 1182 359 672 198 1194 344
2225 623 50 14 93 22 96 18 4 -3 16 -71 28 -151z m5966 -244 c17 -2 57 -7 91
-10 33 -4 71 -9 85 -11 13 -2 56 -9 94 -15 352 -55 493 -146 750 -485 233
-307 549 -926 757 -1485 84 -224 278 -804 277 -825 -1 -15 -2 -16 -6 -4 -3 14
-11 15 -46 8 -23 -4 -195 -38 -382 -74 -352 -68 -550 -110 -935 -197 -124 -28
-252 -56 -286 -64 -114 -25 -678 -163 -913 -224 -129 -33 -236 -58 -239 -56
-2 3 -21 96 -42 208 -46 252 -78 366 -136 486 -96 200 -230 281 -513 313 -98
11 -417 8 -561 -5 -30 -3 -93 -7 -140 -11 -47 -3 -128 -10 -180 -16 -52 -5
-117 -12 -145 -15 -27 -2 -59 -6 -70 -9 -11 -2 -42 -7 -70 -10 -27 -3 -59 -8
-71 -10 -12 -3 -39 -7 -60 -11 -108 -16 -316 -60 -454 -95 -308 -79 -536 -172
-632 -258 -75 -67 -83 -88 -82 -211 1 -119 13 -185 91 -525 64 -281 108 -429
169 -579 25 -60 41 -112 37 -116 -4 -4 -147 -56 -318 -115 -170 -59 -313 -109
-317 -112 -5 -2 -1 -17 7 -32 49 -96 -85 -365 -216 -432 -70 -35 -129 -17
-145 45 -14 58 42 210 111 300 l34 46 -47 -19 c-251 -97 -354 -133 -361 -125
-13 14 -103 588 -165 1049 -70 523 -104 928 -113 1350 -16 790 72 1102 384
1371 226 194 576 371 1018 514 345 112 931 244 1395 315 434 66 939 123 1280
145 96 5 193 12 215 14 51 5 810 -2 850 -8z m17260 -400 c211 -10 326 -16 400
-21 142 -9 231 -16 290 -20 33 -3 89 -7 125 -10 36 -3 87 -8 114 -10 26 -3 78
-7 115 -10 36 -3 91 -7 121 -10 30 -2 87 -7 125 -10 39 -3 77 -8 85 -10 8 -2
55 -7 104 -10 50 -3 92 -8 95 -9 3 -2 38 -7 76 -10 39 -3 81 -8 95 -10 14 -3
43 -7 65 -10 22 -4 51 -8 65 -11 14 -2 45 -7 70 -10 25 -3 55 -7 66 -9 12 -2
38 -7 59 -10 107 -17 459 -93 632 -136 508 -126 1067 -313 1401 -471 345 -162
586 -540 697 -1094 52 -261 60 -369 60 -815 0 -476 -19 -734 -85 -1150 -41
-254 -131 -674 -150 -693 -4 -5 -241 61 -526 146 -595 178 -711 212 -884 262
-69 20 -177 51 -240 70 -63 18 -236 68 -385 111 -148 42 -272 79 -274 80 -2 2
13 81 33 176 47 225 61 320 85 568 39 405 46 519 46 805 0 261 -3 300 -22 389
-12 55 -37 129 -54 165 -40 81 -130 173 -226 230 -169 100 -473 193 -833 255
-19 3 -46 8 -60 11 -13 3 -42 7 -65 10 -22 3 -47 8 -55 10 -8 2 -39 7 -69 10
-30 4 -62 8 -71 10 -9 2 -41 6 -71 10 -30 3 -65 8 -79 10 -14 2 -50 7 -80 10
-30 3 -71 8 -90 10 -79 9 -238 23 -350 30 -47 2 -123 7 -170 11 -185 12 -536
14 -595 3 -124 -23 -197 -83 -260 -213 -153 -318 -189 -647 -144 -1321 5 -82
12 -166 15 -185 3 -19 7 -84 9 -145 2 -60 14 -177 25 -259 12 -82 18 -156 15
-165 -3 -8 -3 -12 1 -8 4 4 24 -75 44 -176 21 -100 52 -235 69 -301 18 -65 30
-120 28 -122 -4 -4 -88 297 -91 326 -1 9 -5 20 -8 25 -3 6 -4 18 -2 28 2 13
-2 17 -12 13 -8 -3 -14 -2 -14 3 0 13 -29 9 -34 -5 -7 -17 -93 -42 -172 -50
-53 -6 -64 -10 -64 -25 0 -15 -8 -19 -40 -19 -22 0 -40 -4 -40 -10 0 -5 -18
-10 -40 -10 -22 0 -40 -4 -40 -10 0 -5 -18 -10 -40 -10 -28 0 -40 -4 -40 -14
0 -10 -22 -16 -80 -21 -44 -4 -80 -11 -80 -16 0 -5 -18 -9 -40 -9 -22 0 -40
-4 -40 -10 0 -5 -17 -10 -38 -10 -21 0 -43 -5 -50 -12 -7 -7 -12 -10 -13 -8
-9 59 -10 56 6 36 11 -14 15 -16 15 -5 0 8 -9 20 -20 27 -11 7 -20 18 -20 25
0 8 3 7 10 -3 7 -12 11 -10 18 10 11 28 5 42 -8 20 -13 -21 -23 -5 -11 18 8
15 6 23 -9 37 -11 10 -20 27 -20 39 0 15 3 17 11 9 9 -9 15 -8 27 3 8 8 11 18
7 22 -7 7 -12 8 -39 11 -9 1 -12 8 -9 21 3 11 1 20 -5 20 -9 0 -15 23 -28 105
-2 11 -15 83 -29 160 -14 77 -39 226 -55 330 -30 187 -45 259 -34 160 8 -79
89 -559 134 -795 137 -730 143 -773 143 -1035 0 -182 -1 -193 -27 -259 -77
-199 -209 -346 -312 -346 -63 0 -91 17 -146 90 -98 129 -140 245 -203 563 -23
114 -44 205 -47 202 -3 -4 -9 -1 -14 6 -5 8 -3 10 6 4 15 -9 17 -27 -33 285
-41 249 -87 608 -121 935 -13 127 -24 213 -25 192 -1 -40 37 -410 69 -667 14
-112 16 -158 8 -165 -7 -7 -9 -6 -4 2 3 6 2 14 -3 17 -5 4 -8 -2 -7 -11 2 -10
6 -16 11 -15 12 6 24 -19 19 -41 -2 -11 1 -28 7 -38 10 -20 -4 -28 -16 -9 -8
13 -25 13 -25 -1 0 -5 5 -7 10 -4 6 3 13 -1 16 -9 3 -9 10 -13 15 -10 5 3 9 0
9 -5 0 -6 -8 -11 -17 -12 -15 0 -15 -2 2 -9 11 -5 16 -9 10 -9 -5 -1 -3 -6 5
-12 11 -8 12 -12 3 -16 -7 -2 -13 -9 -13 -14 0 -6 5 -7 12 -3 7 5 8 3 3 -6 -4
-7 -2 -16 6 -21 10 -6 8 -8 -8 -6 -12 0 -19 5 -17 9 3 4 -4 8 -16 8 -12 0 -18
-4 -15 -10 4 -6 -11 -10 -37 -10 -24 0 -50 -6 -57 -12 -10 -11 -11 -9 -6 7 5
14 4 16 -2 7 -5 -7 -8 -23 -7 -35 1 -12 3 -32 3 -45 1 -13 5 -21 9 -18 4 2 7
-14 6 -37 -1 -23 3 -55 8 -72 6 -16 11 -57 13 -90 5 -93 -8 -25 -49 245 -75
499 -110 831 -178 1705 -16 211 -16 958 0 1110 43 396 122 664 246 833 143
194 595 395 1006 446 152 19 206 24 355 32 72 3 131 7 132 8 5 4 803 -3 918
-8z m-6870 -201 c94 -3 197 -8 230 -10 169 -12 223 -16 264 -20 25 -3 73 -7
106 -10 61 -6 97 -10 173 -19 23 -3 61 -8 85 -11 74 -9 127 -17 202 -29 17 -3
59 -10 95 -15 36 -6 76 -13 90 -16 14 -3 75 -14 135 -25 260 -46 684 -142 998
-226 336 -89 370 -106 509 -253 178 -187 337 -479 501 -921 79 -214 164 -468
205 -615 111 -397 262 -1015 262 -1072 0 -45 -21 -92 -60 -136 -26 -30 -35
-35 -46 -26 -12 9 -13 9 -8 -4 12 -32 -133 -88 -305 -118 -315 -54 -890 -42
-1476 32 -291 36 -724 116 -807 148 l-28 10 26 28 c38 41 119 214 149 318 72
249 129 810 118 1158 l-6 167 -26 6 c-188 42 -314 99 -1001 451 -422 216 -591
250 -852 173 -53 -16 -72 -28 -96 -58 -129 -163 -218 -608 -262 -1312 -29
-465 -55 -1574 -48 -2080 2 -201 1 -300 -2 -220 -4 80 -8 274 -9 433 -1 184
-5 287 -11 287 -5 0 -10 10 -11 23 -1 21 -1 21 -7 2 l-7 -21 -167 20 c-123 14
-168 23 -168 33 0 10 -20 13 -80 13 -47 0 -80 4 -80 10 0 6 -18 10 -40 10 -22
0 -40 4 -40 9 0 4 -54 14 -120 21 -66 7 -120 16 -120 20 0 5 -36 11 -80 15
-55 5 -80 11 -80 20 0 9 -25 15 -80 20 -58 5 -80 11 -80 21 0 11 -18 14 -80
14 -47 0 -80 4 -80 10 0 6 -18 10 -40 10 -22 0 -40 5 -40 10 0 6 -18 10 -40
10 -22 0 -40 5 -40 10 0 6 -18 10 -40 10 -22 0 -40 5 -40 10 0 6 -18 10 -40
10 -22 0 -40 5 -40 10 0 6 -18 10 -40 10 -22 0 -40 5 -40 10 0 6 -18 10 -40
10 -22 0 -40 5 -40 10 0 6 -11 10 -24 10 -14 0 -28 5 -31 10 -3 6 -15 10 -25
10 -11 0 -22 10 -26 22 l-7 23 -9 -25 -9 -25 -14 32 c-8 18 -16 84 -19 148 -3
64 -9 121 -12 127 -4 6 -10 187 -14 402 l-7 391 -1 -280 c-2 -299 5 -443 44
-900 50 -592 57 -705 58 -990 1 -275 0 -293 -21 -347 -85 -226 -318 -420 -443
-368 -33 14 -51 53 -95 210 -80 284 -127 615 -159 1115 -35 538 -31 944 14
1290 11 83 22 168 25 190 l5 40 -10 -35 c-8 -33 -44 -293 -55 -405 -5 -60 -13
-203 -16 -305 -2 -55 -3 -63 -6 -30 -6 62 -19 71 -15 10 5 -62 -15 -68 -21 -7
-5 44 0 -589 7 -828 3 -135 3 -136 -4 -35 -5 58 -11 404 -15 770 -8 690 1
1081 31 1445 8 99 17 214 20 255 6 100 37 275 69 385 49 173 161 355 329 532
319 337 777 561 1396 683 151 29 150 29 195 35 22 4 51 8 65 10 14 2 45 7 70
10 25 3 61 8 80 10 120 16 324 31 545 41 83 3 151 7 152 8 4 3 495 -3 648 -9z
m7005 -1340 c47 -3 123 -8 170 -10 150 -10 344 -27 449 -40 20 -3 56 -7 81
-10 111 -14 199 -26 225 -31 10 -2 37 -6 60 -9 22 -3 65 -10 95 -16 30 -5 69
-12 85 -14 366 -65 695 -179 751 -263 39 -57 49 -147 48 -417 -1 -236 -14
-435 -49 -795 -34 -333 -108 -667 -234 -1050 -133 -406 -175 -494 -269 -566
-122 -93 -361 -118 -742 -79 -169 18 -416 72 -616 136 -115 37 -124 42 -154
82 -48 65 -136 250 -175 372 -51 154 -168 622 -199 793 -66 364 -96 683 -103
1112 -7 423 8 554 89 748 l30 73 187 -5 c102 -3 224 -8 271 -11z m5681 -405
c1718 -258 2556 -373 2926 -402 84 -7 153 -16 153 -20 0 -5 -7 -19 -15 -32 -9
-13 -29 -108 -46 -212 -17 -104 -46 -279 -64 -389 -18 -110 -32 -201 -30 -203
2 -2 23 9 47 24 197 125 548 212 988 245 214 16 944 6 1145 -15 479 -52 974
-162 1513 -337 144 -47 133 -36 243 -264 90 -187 169 -413 263 -747 16 -55 28
-69 40 -49 17 26 252 94 418 121 348 55 1300 66 1738 19 444 -46 889 -152
1335 -315 148 -55 169 -75 253 -247 184 -375 239 -707 249 -1506 7 -501 -8
-754 -68 -1208 -12 -92 -13 -93 -40 -93 -103 0 -1791 269 -1811 288 -3 4 -2
63 3 131 6 79 6 159 0 219 -12 118 -21 128 -170 206 -195 101 -474 201 -856
306 -611 168 -1050 239 -1235 199 -63 -13 -55 4 -146 -304 -37 -126 -70 -233
-74 -238 -10 -12 -1111 255 -1825 442 -480 127 -945 251 -970 261 -22 8 -22
12 -13 52 52 235 141 793 182 1153 14 121 28 241 31 267 l6 47 -73 35 c-372
177 -1428 348 -1944 316 -140 -9 -258 -30 -277 -49 -14 -14 -165 -504 -202
-656 -19 -77 -48 -214 -65 -305 -18 -91 -35 -168 -38 -172 -4 -3 -185 47 -402
112 -217 64 -396 117 -397 116 -2 -1 2 -56 7 -122 16 -187 24 -867 12 -953
-27 -189 -198 -391 -330 -391 -89 0 -102 23 -132 236 -40 289 -66 725 -73
1223 l-2 164 -80 24 c-44 13 -119 36 -166 50 l-86 26 -7 75 c-3 41 -6 186 -6
321 0 921 -70 2142 -146 2549 -8 40 -21 40 237 2z m-20264 -412 c-3 -7 -5 -2
-5 12 0 14 2 19 5 13 2 -7 2 -19 0 -25z m10 -50 c-3 -8 -6 -5 -6 6 -1 11 2 17
5 13 3 -3 4 -12 1 -19z m-4294 -9 c133 -16 168 -34 201 -103 45 -94 110 -385
146 -650 l10 -80 -32 -33 c-127 -131 -477 -292 -851 -392 -203 -55 -718 -170
-822 -185 -143 -20 -199 -25 -267 -23 -67 2 -79 5 -97 27 -40 48 -110 197
-155 330 -51 152 -186 717 -186 780 0 36 239 116 560 189 96 22 189 42 205 44
37 6 161 26 195 32 14 2 45 7 70 10 129 16 184 22 275 30 33 3 85 7 115 10 30
3 102 8 160 11 58 3 107 8 108 9 9 9 283 4 365 -6z m-9224 -46 c108 -422 270
-1037 337 -1278 47 -170 89 -323 94 -340 61 -226 148 -530 230 -805 11 -36 40
-135 65 -220 26 -85 56 -184 67 -220 27 -89 48 -159 58 -195 4 -16 31 -106 59
-200 51 -165 79 -258 177 -569 44 -142 45 -150 28 -160 -11 -6 -82 -44 -159
-84 -723 -379 -1594 -886 -2280 -1327 -402 -258 -1256 -833 -1775 -1193 -90
-63 -170 -116 -176 -119 -6 -2 -21 23 -34 59 -148 410 -558 1460 -765 1963
-451 1095 -968 2218 -1318 2865 -46 85 -81 159 -76 164 18 20 1804 609 2659
876 808 253 2727 818 2782 820 12 0 20 -12 27 -37z m14621 22 c0 -12 -19 -12
-23 0 -4 9 -1 12 9 8 7 -3 14 -7 14 -8z m-1 -41 c4 3 8 -1 8 -9 0 -12 -3 -12
-16 -2 -12 10 -14 9 -8 -5 3 -10 2 -18 -3 -18 -12 0 -13 12 -3 36 4 11 8 13
11 6 2 -7 7 -10 11 -8z m-1082 -26 c-3 -8 -6 -5 -6 6 -1 11 2 17 5 13 3 -3 4
-12 1 -19z m-21248 -113 c18 -49 108 -299 201 -555 201 -556 375 -1051 635
-1805 568 -1648 1161 -3228 1864 -4963 83 -206 151 -377 151 -381 0 -3 -8 -11
-17 -17 -80 -50 -927 -720 -1264 -1000 -117 -97 -215 -172 -217 -166 -2 6 -24
53 -49 104 -190 389 -618 1296 -1025 2173 -808 1740 -1173 2547 -1603 3550
-395 920 -925 2164 -925 2170 0 10 687 324 1400 640 657 291 804 354 811 347
3 -4 20 -47 38 -97z m20488 83 c-3 -8 -6 -5 -6 6 -1 11 2 17 5 13 3 -3 4 -12
1 -19z m32 -98 c0 -9 -4 -8 -9 5 -5 11 -9 27 -9 35 0 9 4 8 9 -5 5 -11 9 -27
9 -35z m20 -65 c0 -5 -4 -3 -9 5 -5 8 -9 22 -9 30 0 16 17 -16 18 -35z m748
-17 c-3 -8 -6 -5 -6 6 -1 11 2 17 5 13 3 -3 4 -12 1 -19z m-740 -30 c-3 -8 -6
-5 -6 6 -1 11 2 17 5 13 3 -3 4 -12 1 -19z m750 -20 c-3 -7 -5 -2 -5 12 0 14
2 19 5 13 2 -7 2 -19 0 -25z m-730 -50 c-3 -8 -6 -5 -6 6 -1 11 2 17 5 13 3
-3 4 -12 1 -19z m760 -100 c-3 -8 -6 -5 -6 6 -1 11 2 17 5 13 3 -3 4 -12 1
-19z m10 -50 c-3 -8 -6 -5 -6 6 -1 11 2 17 5 13 3 -3 4 -12 1 -19z m-723 -23
c5 -22 4 -26 -4 -15 -5 8 -10 24 -10 34 0 26 6 18 14 -19z m13 -77 c-3 -7 -5
-2 -5 12 0 14 2 19 5 13 2 -7 2 -19 0 -25z m20 -80 c-3 -8 -6 -5 -6 6 -1 11 2
17 5 13 3 -3 4 -12 1 -19z m3558 -77 c3 -5 0 -13 -6 -17 -7 -4 -9 -3 -5 4 3 5
0 13 -6 15 -9 4 -10 6 -1 6 6 1 14 -3 18 -8z m-3538 -23 c-3 -8 -6 -5 -6 6 -1
11 2 17 5 13 3 -3 4 -12 1 -19z m3531 -89 c-3 -8 -7 -3 -11 10 -4 17 -3 21 5
13 5 -5 8 -16 6 -23z m-3511 -21 c-3 -8 -6 -5 -6 6 -1 11 2 17 5 13 3 -3 4
-12 1 -19z m3534 -41 c-10 -9 -11 -8 -5 6 3 10 9 15 12 12 3 -3 0 -11 -7 -18z
m-1904 -11 c26 -22 28 -30 27 -88 -3 -113 -78 -270 -178 -372 -61 -62 -108
-86 -169 -86 -37 0 -49 5 -66 26 -61 78 11 299 145 443 91 98 182 127 241 77z
m-1257 -206 c0 -6 43 -232 95 -503 290 -1493 799 -4216 790 -4225 -1 -2 -81 2
-176 9 -388 26 -1079 -15 -1634 -97 -478 -71 -1084 -191 -1514 -300 -184 -46
-336 -83 -338 -81 -5 5 497 138 1057 279 438 110 878 225 1159 300 141 39 213
83 269 167 21 32 44 78 50 102 7 24 39 285 73 579 74 660 158 1375 246 2092
61 496 66 553 55 604 -26 125 -94 214 -205 269 -88 43 -139 49 -387 50 -211 0
-226 -2 -510 -51 -308 -53 -547 -107 -799 -183 -74 -23 -136 -39 -137 -38 -2
2 92 41 209 87 1053 414 1540 679 1657 903 24 44 40 60 40 37z m13014 -51 c-6
-10 -44 -7 -44 3 0 4 11 7 24 6 14 -1 23 -6 20 -9z m871 -39 c3 -6 -4 -10 -17
-10 -18 0 -20 2 -8 10 19 12 18 12 25 0z m-882 -56 c-3 -8 -7 -14 -10 -14 -3
0 -3 6 0 14 3 7 0 20 -6 27 -10 11 -9 11 5 0 9 -7 14 -19 11 -27z m-9745 -264
c0 -19 -6 8 -14 60 -7 52 -12 111 -12 130 0 19 6 -8 14 -60 7 -52 12 -111 12
-130z m929 200 c-2 -11 -7 -23 -12 -27 -4 -5 -5 -2 -1 5 4 6 2 12 -4 12 -7 0
-6 5 2 15 17 19 18 19 15 -5z m753 -60 c0 -5 -5 -10 -11 -10 -5 0 -7 5 -4 10
3 6 8 10 11 10 2 0 4 -4 4 -10z m8098 -45 c-3 -3 -9 2 -12 12 -6 14 -5 15 5 6
7 -7 10 -15 7 -18z m-8111 -37 c-3 -8 -6 -5 -6 6 -1 11 2 17 5 13 3 -3 4 -12
1 -19z m30 -31 c0 -7 -6 -18 -14 -25 -17 -17 -19 8 -1 26 15 15 15 15 15 -1z
m8118 -67 c4 -6 10 -8 15 -5 5 3 4 -8 -1 -25 -13 -37 -24 -45 -26 -19 -1 11 2
17 8 14 11 -7 11 -3 3 20 -5 13 -8 14 -15 3 -7 -10 -9 -9 -9 5 0 19 15 23 25
7z m-9808 -52 c-2 -13 -4 -5 -4 17 -1 22 1 32 4 23 2 -10 2 -28 0 -40z m10740
30 c-3 -8 -6 -5 -6 6 -1 11 2 17 5 13 3 -3 4 -12 1 -19z m-9051 -12 c1 -7 -4
-13 -12 -13 -9 0 -11 4 -4 12 5 7 8 15 5 18 -3 4 -2 5 2 2 4 -3 8 -11 9 -19z
m8151 -8 c-3 -8 -6 -5 -6 6 -1 11 2 17 5 13 3 -3 4 -12 1 -19z m-833 -4 c3 -8
2 -12 -4 -9 -6 3 -10 10 -10 16 0 14 7 11 14 -7z m1743 -16 c-3 -8 -6 -5 -6 6
-1 11 2 17 5 13 3 -3 4 -12 1 -19z m2846 7 c-3 -9 -8 -14 -10 -11 -3 3 -2 9 2
15 9 16 15 13 8 -4z m-3747 -31 c-7 -35 -11 -38 -26 -19 -11 13 -10 15 6 9 18
-5 18 -4 -1 12 -17 14 -17 16 -2 11 9 -4 17 -2 17 3 0 6 2 10 5 10 3 0 3 -12
1 -26z m911 -16 c-3 -8 -6 -5 -6 6 -1 11 2 17 5 13 3 -3 4 -12 1 -19z m-10744
-58 c3 -41 2 -54 -3 -35 -8 31 -13 112 -6 104 2 -2 6 -33 9 -69z m10766 -10
c0 -9 -4 -8 -9 5 -5 11 -9 27 -9 35 0 9 4 8 9 -5 5 -11 9 -27 9 -35z m28 -102
c-3 -8 -6 -5 -6 6 -1 11 2 17 5 13 3 -3 4 -12 1 -19z m-10780 -40 c-2 -13 -4
-5 -4 17 -1 22 1 32 4 23 2 -10 2 -28 0 -40z m10 -70 c-3 -7 -5 -2 -5 12 0 14
2 19 5 13 2 -7 2 -19 0 -25z m10813 -3 c0 -5 -5 -3 -10 5 -5 8 -10 20 -10 25
0 6 5 3 10 -5 5 -8 10 -19 10 -25z m-1896 -210 c3 -27 -3 -9 -14 40 -10 50
-21 113 -24 140 -3 28 3 10 14 -40 10 -49 21 -112 24 -140z m-8901 90 c4 -46
3 -58 -3 -35 -11 51 -20 149 -11 125 5 -11 11 -51 14 -90z m30697 70 c426 -50
1008 -225 1757 -528 890 -361 2035 -925 2628 -1295 282 -176 564 -381 652
-474 64 -68 142 -187 193 -293 72 -151 184 -516 164 -534 -11 -11 -477 -73
-784 -105 -507 -54 -1047 -95 -1515 -116 -126 -5 -274 -12 -327 -15 l-97 -5
20 44 c27 61 86 297 94 377 20 194 -77 347 -325 511 -337 221 -1051 568 -1615
783 -396 151 -635 218 -782 219 -84 1 -93 -1 -118 -24 -44 -40 -73 -121 -110
-305 -43 -213 -55 -331 -45 -456 14 -183 80 -312 205 -407 91 -69 361 -201
600 -295 472 -186 885 -335 1159 -418 l131 -40 -565 7 c-311 3 -581 6 -600 6
-19 0 -98 4 -175 9 -77 5 -208 11 -292 14 -220 8 -235 10 -382 71 -139 58
-150 59 -151 9 -1 -50 -20 -52 -260 -30 -41 3 -75 6 -255 20 -164 13 -155 14
-159 -9 -2 -11 -9 -64 -15 -116 -6 -52 -19 -122 -31 -154 -71 -207 -253 -386
-392 -386 -59 0 -78 17 -106 93 -45 120 -57 210 -57 433 l0 211 -132 13 c-127
12 -133 14 -133 35 0 33 54 328 94 513 79 363 187 745 321 1142 294 866 601
1362 910 1471 115 40 287 49 495 24z m-19870 -30 c0 -5 -5 -3 -10 5 -5 8 -10
20 -10 25 0 6 5 3 10 -5 5 -8 10 -19 10 -25z m-9983 -107 c-2 -18 -4 -4 -4 32
0 36 2 50 4 33 2 -18 2 -48 0 -65z m-830 -75 c-3 -10 -5 -4 -5 12 0 17 2 24 5
18 2 -7 2 -21 0 -30z m8900 -40 c-3 -10 -5 -4 -5 12 0 17 2 24 5 18 2 -7 2
-21 0 -30z m2013 17 c6 -11 8 -20 6 -20 -3 0 -10 9 -16 20 -6 11 -8 20 -6 20
3 0 10 -9 16 -20z m-10073 -62 c-2 -13 -4 -3 -4 22 0 25 2 35 4 23 2 -13 2
-33 0 -45z m-829 16 c-3 -14 -5 -12 -10 9 -3 19 -2 25 4 19 6 -6 8 -18 6 -28z
m8912 -34 c4 0 5 -10 2 -22 -6 -23 -6 -23 -13 2 -4 14 -7 34 -7 45 1 17 1 16
5 -2 2 -13 8 -23 13 -23z m-14570 20 c-8 -5 -19 -10 -25 -10 -5 0 -3 5 5 10 8
5 20 10 25 10 6 0 3 -5 -5 -10z m-71 -25 c-7 -6 -373 -139 -594 -214 -205 -71
-266 -106 -326 -190 -49 -68 -69 -134 -69 -228 0 -70 12 -113 64 -234 l15 -36
-82 -16 c-45 -9 -98 -19 -117 -22 -19 -3 -46 -7 -60 -10 -14 -2 -49 -7 -79
-10 -30 -4 -63 -9 -75 -11 -12 -2 -32 -6 -46 -8 -14 -3 -47 -8 -75 -11 -27 -3
-57 -8 -65 -10 -8 -2 -37 -6 -65 -10 -27 -3 -57 -8 -65 -10 -8 -2 -37 -6 -65
-10 -27 -3 -57 -8 -65 -10 -8 -2 -35 -6 -60 -9 -25 -3 -54 -8 -65 -10 -18 -3
-59 -10 -137 -22 -36 -5 -79 -12 -148 -24 -30 -5 -73 -12 -95 -15 -23 -3 -52
-7 -65 -10 -13 -3 -40 -7 -60 -10 -20 -3 -47 -7 -60 -10 -13 -3 -40 -7 -60
-10 -20 -3 -45 -7 -57 -9 -11 -3 -37 -7 -57 -10 -20 -3 -53 -9 -73 -12 -89
-15 -82 -20 -148 111 -58 116 -122 281 -113 290 2 3 22 7 44 10 21 3 64 10 94
15 30 5 72 12 94 16 21 3 46 7 55 9 9 1 36 6 61 10 87 13 95 15 145 25 342 68
1010 244 1560 410 250 76 746 239 850 279 49 20 73 26 64 16z m5738 -57 c-3
-7 -5 -2 -5 12 0 14 2 19 5 13 2 -7 2 -19 0 -25z m8921 -53 c0 -16 -2 -15 -8
5 -4 14 -8 34 -8 45 0 16 2 15 8 -5 4 -14 8 -34 8 -45z m-8091 -12 c-3 -10 -5
-2 -5 17 0 19 2 27 5 18 2 -10 2 -26 0 -35z m-820 -15 c-3 -8 -6 -5 -6 6 -1
11 2 17 5 13 3 -3 4 -12 1 -19z m8920 -20 c-3 -8 -6 -5 -6 6 -1 11 2 17 5 13
3 -3 4 -12 1 -19z m-897 -67 c0 -32 -6 -24 -14 19 -4 25 -3 31 4 20 5 -8 10
-26 10 -39z m918 -16 c0 -16 -2 -15 -8 5 -4 14 -8 34 -8 45 0 16 2 15 8 -5 4
-14 8 -34 8 -45z m-8931 13 c-3 -7 -5 -2 -5 12 0 14 2 19 5 13 2 -7 2 -19 0
-25z m3490 -70 c-2 -13 -4 -3 -4 22 0 25 2 35 4 23 2 -13 2 -33 0 -45z m4530
10 c-3 -7 -5 -2 -5 12 0 14 2 19 5 13 2 -7 2 -19 0 -25z m-8010 -35 c-3 -10
-5 -4 -5 12 0 17 2 24 5 18 2 -7 2 -21 0 -30z m8020 -5 c-3 -8 -6 -5 -6 6 -1
11 2 17 5 13 3 -3 4 -12 1 -19z m-4530 -90 c-2 -18 -4 -4 -4 32 0 36 2 50 4
33 2 -18 2 -48 0 -65z m-2670 45 c-3 -10 -5 -4 -5 12 0 17 2 24 5 18 2 -7 2
-21 0 -30z m7210 -5 c-3 -8 -6 -5 -6 6 -1 11 2 17 5 13 3 -3 4 -12 1 -19z
m-8020 -25 c-3 -10 -5 -4 -5 12 0 17 2 24 5 18 2 -7 2 -21 0 -30z m8950 -15
c-3 -8 -6 -5 -6 6 -1 11 2 17 5 13 3 -3 4 -12 1 -19z m-920 -20 c-3 -7 -5 -2
-5 12 0 14 2 19 5 13 2 -7 2 -19 0 -25z m-2547 19 c0 -2 -10 -12 -22 -23 l-23
-19 19 23 c18 21 26 27 26 19z m2557 -69 c-3 -8 -6 -5 -6 6 -1 11 2 17 5 13 3
-3 4 -12 1 -19z m930 -10 c-3 -8 -6 -5 -6 6 -1 11 2 17 5 13 3 -3 4 -12 1 -19z
m-920 -50 c-3 -7 -5 -2 -5 12 0 14 2 19 5 13 2 -7 2 -19 0 -25z m-4560 -55
c-2 -16 -4 -3 -4 27 0 30 2 43 4 28 2 -16 2 -40 0 -55z m1920 35 c-3 -8 -6 -5
-6 6 -1 11 2 17 5 13 3 -3 4 -12 1 -19z m2650 -20 c-3 -8 -6 -5 -6 6 -1 11 2
17 5 13 3 -3 4 -12 1 -19z m-2660 -40 c-3 -7 -5 -2 -5 12 0 14 2 19 5 13 2 -7
2 -19 0 -25z m2670 -20 c-3 -8 -6 -5 -6 6 -1 11 2 17 5 13 3 -3 4 -12 1 -19z
m10 -50 c-3 -8 -6 -5 -6 6 -1 11 2 17 5 13 3 -3 4 -12 1 -19z m-4580 -35 c-3
-10 -5 -2 -5 17 0 19 2 27 5 18 2 -10 2 -26 0 -35z m1890 -15 c-2 -13 -4 -3
-4 22 0 25 2 35 4 23 2 -13 2 -33 0 -45z m-5340 -80 c-3 -7 -5 -2 -5 12 0 14
2 19 5 13 2 -7 2 -19 0 -25z m5330 -5 c-3 -10 -5 -4 -5 12 0 17 2 24 5 18 2
-7 2 -21 0 -30z m-1870 -15 c-3 -7 -5 -2 -5 12 0 14 2 19 5 13 2 -7 2 -19 0
-25z m6437 -42 c27 -55 11 -143 -49 -263 -89 -180 -223 -285 -321 -253 -43 15
-54 35 -54 103 0 132 120 349 236 426 43 28 55 32 109 29 59 -3 60 -4 79 -42z
m-6427 -53 c-3 -10 -5 -4 -5 12 0 17 2 24 5 18 2 -7 2 -21 0 -30z m1850 -10
c-3 -10 -5 -2 -5 17 0 19 2 27 5 18 2 -10 2 -26 0 -35z m-3843 -73 c79 -95 23
-312 -119 -456 -104 -106 -197 -133 -256 -75 -26 27 -29 36 -29 95 0 213 182
466 337 466 34 0 46 -6 67 -30z m2003 8 c-3 -8 -6 -5 -6 6 -1 11 2 17 5 13 3
-3 4 -12 1 -19z m-3047 -12 c0 -8 -4 -18 -10 -21 -5 -3 -10 3 -10 14 0 12 5
21 10 21 6 0 10 -6 10 -14z m4877 -33 c-3 -10 -5 -2 -5 17 0 19 2 27 5 18 2
-10 2 -26 0 -35z m2790 -5 c-3 -8 -6 -5 -6 6 -1 11 2 17 5 13 3 -3 4 -12 1
-19z m-7670 -20 c-3 -8 -6 -5 -6 6 -1 11 2 17 5 13 3 -3 4 -12 1 -19z m3060
-10 c-3 -8 -6 -5 -6 6 -1 11 2 17 5 13 3 -3 4 -12 1 -19z m-3047 -23 c0 -8 -4
-15 -10 -15 -5 0 -10 7 -10 15 0 8 5 15 10 15 6 0 10 -7 10 -15z m3057 -37
c-3 -8 -6 -5 -6 6 -1 11 2 17 5 13 3 -3 4 -12 1 -19z m-3055 -60 c-9 -9 -12
-7 -12 12 0 19 3 21 12 12 9 -9 9 -15 0 -24z m3065 0 c-3 -8 -6 -5 -6 6 -1 11
2 17 5 13 3 -3 4 -12 1 -19z m-3060 -40 c-3 -8 -6 -5 -6 6 -1 11 2 17 5 13 3
-3 4 -12 1 -19z m13 -33 c0 -8 -4 -15 -10 -15 -5 0 -10 7 -10 15 0 8 5 15 10
15 6 0 10 -7 10 -15z m-3 -47 c-3 -8 -6 -5 -6 6 -1 11 2 17 5 13 3 -3 4 -12 1
-19z m11 -55 c0 -29 -2 -33 -9 -18 -11 27 -11 55 0 55 5 0 9 -17 9 -37z
m30548 -204 c362 -122 712 -270 1180 -499 319 -156 504 -257 649 -357 130 -90
135 -98 112 -205 -9 -45 -21 -86 -25 -90 -12 -12 -222 26 -377 67 -259 67
-683 217 -1230 432 -214 84 -497 219 -537 256 -61 56 -65 219 -13 445 7 30 14
28 241 -49z m-13374 -786 c26 -30 29 -69 13 -141 -28 -122 -148 -292 -233
-329 -46 -21 -90 -16 -119 13 -24 24 -25 31 -20 91 9 116 106 278 211 355 47
34 123 40 148 11z m-20358 -1514 c461 -35 970 -205 1341 -446 232 -151 455
-381 640 -658 196 -295 348 -610 475 -985 15 -44 69 -236 76 -270 3 -14 16
-65 29 -115 13 -49 29 -117 36 -150 7 -33 13 -62 14 -65 5 -26 18 -90 21 -110
3 -14 11 -63 20 -109 8 -46 17 -101 19 -124 3 -22 7 -56 9 -76 11 -87 20 -147
22 -161 13 -80 55 -486 63 -600 33 -496 15 -1017 -44 -1275 -24 -104 -93 -303
-139 -400 l-44 -93 -163 -122 c-359 -269 -980 -653 -1586 -979 -369 -199 -915
-450 -1126 -517 -16 -5 303 -8 775 -6 525 2 860 0 968 -8 617 -42 1185 -147
1714 -317 178 -57 409 -144 429 -161 29 -26 212 -302 320 -482 85 -143 297
-554 364 -705 176 -400 373 -928 504 -1354 133 -429 259 -895 245 -908 -3 -4
-13 26 -21 67 -27 135 -28 138 -47 135 -10 -2 -16 0 -13 6 4 5 11 7 16 4 5 -4
9 3 9 13 0 23 -23 45 -35 34 -4 -4 -2 3 4 16 13 25 9 52 -8 52 -5 0 -8 -12 -5
-26 3 -17 1 -23 -6 -19 -6 4 -9 13 -6 21 3 7 1 16 -3 19 -5 2 -428 5 -941 5
-833 0 -931 2 -926 16 3 8 2 12 -4 9 -16 -10 -12 -45 4 -39 18 7 30 -12 15
-22 -8 -5 -9 -3 -4 6 5 9 4 11 -4 6 -9 -6 -9 -11 1 -24 11 -13 11 -14 -1 -8
-10 7 -12 3 -7 -13 3 -11 8 -30 11 -40 3 -11 0 -23 -6 -27 -8 -4 -9 -3 -5 4
25 40 -344 965 -530 1329 -161 314 -285 475 -485 629 -66 50 -178 93 -313 120
-97 18 -365 21 -536 4 -308 -30 -721 -92 -1101 -166 -303 -58 -1150 -271
-1957 -489 -604 -164 -627 -171 -626 -186 1 -8 31 -115 68 -239 37 -124 87
-292 111 -375 24 -82 101 -341 170 -574 69 -233 124 -425 122 -428 -2 -2 -10
17 -17 42 -7 24 -16 43 -20 40 -4 -2 -5 6 -3 20 4 19 1 23 -13 21 -24 -4 -36
3 -28 15 4 6 11 6 20 -2 15 -12 17 -6 8 29 -4 12 -14 22 -23 23 -10 0 -11 2
-3 6 15 6 16 30 0 35 -6 2 -13 22 -14 44 -1 21 -10 57 -19 79 -10 22 -17 44
-16 49 4 16 -21 76 -29 71 -5 -3 -12 0 -16 6 -4 7 -3 9 4 5 6 -3 13 -2 17 4 3
5 1 10 -5 10 -6 0 -9 3 -7 8 3 4 -377 6 -844 4 -744 -2 -849 -4 -849 -17 0
-11 11 -15 40 -15 43 0 47 -4 26 -26 -11 -10 -15 -11 -19 -1 -3 9 -8 9 -17 1
-16 -16 18 -128 35 -114 8 7 12 5 12 -5 0 -8 -5 -11 -10 -8 -6 4 -8 -3 -3 -18
11 -40 17 -75 10 -59 -61 138 -1672 4976 -2830 8500 -191 580 -349 1061 -351
1067 -3 7 1 15 8 17 101 34 828 269 959 310 249 78 468 146 520 161 25 7 115
34 200 60 288 86 735 216 827 241 29 7 130 36 225 63 480 137 1434 385 1680
436 249 52 844 159 1048 189 195 29 485 59 720 76 403 29 569 31 854 9z
m32226 15 c0 -3 -45 -72 -99 -152 l-99 -147 -12 -120 c-18 -202 -19 -205 -45
-205 -30 0 -72 50 -81 96 -24 128 54 312 188 441 55 53 148 108 148 87z m2380
-44 c8 -5 11 -10 5 -10 -5 0 -17 5 -25 10 -8 5 -10 10 -5 10 6 0 17 -5 25 -10z
m252 -88 c122 -44 267 -94 321 -112 95 -33 106 -41 88 -69 -11 -18 -7 -19
-346 126 -384 165 -389 169 -63 55z m-38397 9 c-11 -5 -36 -11 -55 -14 -35 -6
-34 -6 5 8 43 14 84 19 50 6z m-98 -27 c-3 -3 -12 -4 -19 -1 -8 3 -5 6 6 6 11
1 17 -2 13 -5z m-40 -10 c-3 -3 -12 -4 -19 -1 -8 3 -5 6 6 6 11 1 17 -2 13 -5z
m-52 -14 c-11 -5 -27 -9 -35 -9 -9 0 -8 4 5 9 11 5 27 9 35 9 9 0 8 -4 -5 -9z
m-58 -16 c-3 -3 -12 -4 -19 -1 -8 3 -5 6 6 6 11 1 17 -2 13 -5z m-40 -10 c-3
-3 -12 -4 -19 -1 -8 3 -5 6 6 6 11 1 17 -2 13 -5z m27868 -684 c486 -103 978
-215 1685 -385 1167 -280 1487 -347 1662 -349 65 0 118 -3 118 -5 0 -3 -69
-171 -154 -375 -200 -482 -416 -1014 -633 -1561 -216 -543 -463 -1245 -948
-2697 l-223 -667 31 -5 c18 -3 82 -13 142 -22 136 -20 375 -80 548 -137 l131
-44 535 537 c543 544 837 826 1260 1208 355 321 437 392 447 382 5 -4 185
-112 399 -238 612 -360 912 -543 1015 -617 692 -499 1105 -943 1235 -1329 43
-128 39 -136 -100 -180 -148 -47 -450 -101 -1180 -211 -203 -30 -449 -69 -545
-86 -377 -65 -1186 -219 -1338 -254 -109 -26 -192 -59 -192 -77 0 -5 49 -69
108 -141 562 -684 957 -1246 1251 -1780 46 -82 165 -321 196 -392 26 -59 128
-315 130 -325 1 -3 18 -56 38 -119 29 -89 35 -116 25 -123 -7 -4 -580 -8
-1272 -8 -692 0 -1262 -3 -1265 -6 -3 -4 -1 -5 4 -2 6 4 9 -30 8 -95 -2 -84 1
-103 15 -113 9 -7 21 -10 26 -7 5 4 6 1 2 -5 -5 -9 -14 -8 -30 4 -23 15 -24
19 -30 222 -29 922 -72 1428 -162 1886 -83 420 -155 623 -260 729 -97 98 -322
211 -599 302 -426 140 -915 237 -1205 238 -212 1 -301 -24 -320 -92 -28 -97
-20 -514 15 -791 3 -25 7 -70 10 -100 3 -30 7 -80 11 -110 10 -105 85 -617
134 -930 63 -398 60 -374 126 -759 30 -178 53 -329 50 -337 -3 -7 -1 -14 3
-16 4 -2 11 -18 14 -35 6 -30 4 -33 -18 -33 -14 0 -25 5 -25 11 0 5 -4 7 -10
4 -5 -3 -10 -1 -10 4 0 11 11 14 28 9 4 -2 6 -7 4 -11 -1 -5 2 -6 8 -2 16 10
12 35 -6 35 -8 0 -13 4 -10 9 4 5 -4 7 -16 3 -19 -5 -20 -6 -4 -12 10 -3 -15
-6 -55 -6 -57 -1 -75 -4 -85 -19 -14 -19 -44 -14 -44 7 0 10 2 10 9 -1 5 -7
14 -10 20 -7 24 15 -3 26 -65 26 -45 0 -63 -3 -58 -11 5 -8 1 -8 -14 0 -23 12
-68 8 -65 -6 2 -12 -34 -10 -44 2 -5 4 -3 6 2 2 6 -3 17 -2 25 4 13 7 12 9 -2
9 -10 0 -18 6 -19 13 0 8 -2 8 -5 1 -3 -6 -22 -10 -45 -8 -28 2 -38 0 -33 -9
5 -9 4 -9 -5 -1 -7 6 -33 8 -69 4 -55 -7 -78 2 -65 23 3 5 9 3 14 -4 5 -9 9
-9 9 -3 0 12 236 17 255 5 12 -7 55 -9 50 -1 -6 9 239 5 254 -4 11 -7 13 -5 8
8 -4 10 -7 22 -7 27 0 5 -478 9 -1200 9 -1217 0 -1206 0 -1201 -33 0 -4 -3 -7
-8 -7 -17 0 -22 57 -28 305 -10 455 32 1250 122 2310 19 220 37 436 40 480 3
44 8 94 10 110 2 17 6 66 10 110 9 120 69 719 125 1260 91 879 243 2598 314
3560 68 914 91 1392 84 1771 l-5 261 406 -83 c223 -45 451 -92 506 -104z
m1632 24 c-3 -3 -12 -4 -19 -1 -8 3 -5 6 6 6 11 1 17 -2 13 -5z m-16627 -534
c781 -35 1426 -139 1946 -315 261 -88 262 -89 331 -192 219 -325 382 -676 648
-1388 184 -494 484 -1452 675 -2160 92 -342 248 -987 275 -1140 2 -16 7 -41
10 -55 3 -14 8 -38 10 -55 3 -16 19 -97 35 -180 109 -561 181 -1113 211 -1609
15 -255 7 -791 -15 -931 -8 -55 -18 -118 -21 -140 -4 -22 -10 -56 -15 -75 -5
-19 -11 -46 -14 -60 -20 -108 -106 -301 -180 -404 -103 -144 -194 -208 -426
-299 -282 -110 -1212 -396 -1247 -383 -8 3 -12 2 -8 -3 7 -12 -51 -25 -66 -15
-7 4 -9 3 -6 -3 6 -10 -56 -29 -77 -24 -4 1 -14 -3 -22 -10 -10 -8 -18 -7 -32
3 -15 10 -79 12 -306 10 -260 -2 -287 -4 -284 -19 3 -14 24 -16 185 -17 107 0
180 -3 176 -9 -3 -5 4 -4 15 2 27 14 45 14 36 -1 -5 -7 -3 -8 7 -3 20 13 102
14 90 2 -5 -5 -24 -10 -40 -11 -17 -1 -31 -5 -31 -10 0 -5 -3 -6 -7 -3 -3 4
-12 2 -20 -5 -8 -6 -13 -7 -12 -2 4 22 -2 26 -15 9 -7 -10 -19 -19 -27 -21 -8
-1 -22 -5 -31 -9 -13 -5 -18 -2 -18 11 0 12 3 15 8 7 5 -8 12 -8 25 2 12 8 14
15 8 20 -6 3 -11 2 -11 -3 0 -6 -8 -8 -17 -6 -10 3 -87 6 -171 7 -153 2 -173
-3 -137 -33 8 -6 14 -15 13 -18 -2 -17 3 -32 10 -32 15 0 10 34 -7 54 -12 15
-8 13 17 -5 29 -20 31 -24 15 -31 -10 -3 -14 -7 -9 -7 5 -1 3 -7 -3 -14 -6 -8
-8 -17 -4 -20 3 -4 3 -7 0 -7 -10 0 -37 57 -30 64 4 3 1 6 -5 6 -16 0 -54 78
-46 92 4 6 3 8 -2 5 -13 -8 -67 90 -58 105 4 6 3 8 -3 5 -5 -3 -17 8 -26 26
-71 140 -127 232 -144 235 -23 3 -396 -85 -921 -218 -217 -55 -399 -97 -405
-94 -7 4 -8 3 -4 -1 7 -8 -193 -68 -201 -60 -2 2 -15 -3 -30 -11 -24 -12 -27
-12 -30 2 -3 13 -5 13 -16 -2 -7 -10 -21 -19 -30 -21 -34 -7 -41 -9 -51 -14
-22 -13 -61 -18 -75 -9 -11 7 -20 3 -33 -13 l-18 -22 11 23 c6 13 9 26 6 29
-3 3 -11 -6 -17 -20 -7 -15 -16 -24 -22 -20 -5 3 -3 9 4 15 11 8 11 9 -1 5 -8
-2 -14 -11 -14 -20 1 -9 -3 -14 -8 -11 -5 3 -7 12 -4 20 5 12 -168 14 -1179
14 -801 0 -1185 -3 -1185 -10 0 -6 -11 -3 -25 6 -14 9 -28 14 -32 10 -3 -3 -1
-6 6 -6 7 0 10 -4 7 -9 -13 -21 113 -177 137 -168 8 3 14 -3 14 -15 3 -31 -74
36 -123 108 -102 151 -243 565 -428 1254 -146 546 -227 895 -345 1485 -104
523 -124 664 -124 890 1 267 39 388 166 522 270 284 956 536 2097 772 108 22
211 43 230 46 19 3 96 17 170 31 74 15 146 28 160 30 53 9 136 24 156 28 12 2
37 7 55 10 19 3 51 8 73 11 21 4 48 9 60 11 11 2 41 6 66 9 25 3 56 8 68 11
13 3 43 7 65 10 23 3 67 9 97 15 30 5 75 11 100 14 25 3 59 8 75 10 17 3 46 7
65 9 50 7 249 37 270 41 9 2 41 6 71 10 30 3 61 8 69 10 8 2 35 7 60 10 25 3
70 10 100 15 30 5 69 12 85 14 17 3 45 8 63 11 17 3 47 7 65 10 45 8 137 24
167 30 14 3 52 10 85 15 83 14 110 19 190 35 39 8 81 16 95 18 188 35 330 77
395 118 l46 29 -6 58 c-36 318 -78 515 -152 717 -101 275 -233 522 -437 818
-99 145 -131 167 -270 192 -154 26 -300 18 -551 -31 -249 -49 -729 -201 -1190
-376 -115 -44 -236 -89 -267 -101 -32 -11 -58 -27 -58 -34 0 -8 45 -165 100
-351 113 -381 112 -345 11 -383 -67 -25 -149 -46 -211 -54 -25 -3 -52 -8 -60
-10 -8 -2 -42 -7 -75 -10 -33 -4 -73 -8 -90 -10 -16 -2 -57 -7 -89 -10 -75 -8
-121 -13 -166 -20 -19 -2 -69 -7 -110 -11 -41 -3 -95 -7 -120 -9 -284 -25
-395 -29 -775 -30 -262 0 -496 5 -600 13 -445 34 -969 122 -1195 200 l-55 19
-6 239 c-12 443 -29 907 -44 1199 -8 160 -24 463 -35 675 -28 536 -33 477 43
534 115 87 310 175 608 274 670 222 1273 364 1849 436 751 94 1767 137 2470
106z m8310 -1744 c721 -62 1319 -160 1945 -317 609 -153 1664 -500 1845 -607
342 -202 596 -838 779 -1952 40 -241 104 -770 103 -842 -2 -92 -100 -174 -252
-211 -326 -80 -1093 -14 -1965 169 -307 64 -721 171 -809 208 l-39 16 45 48
c91 98 175 233 231 373 101 251 267 977 267 1169 l0 38 -78 26 c-158 53 -461
213 -882 466 -544 327 -739 392 -1046 349 -97 -13 -119 -25 -179 -91 -170
-189 -346 -796 -479 -1653 -39 -248 -162 -1126 -171 -1216 -1 -14 -6 -52 -10
-85 -46 -356 -80 -776 -95 -1155 -25 -605 27 -963 150 -1047 35 -24 36 -24
230 -19 223 7 444 31 745 81 547 92 660 122 751 203 72 65 80 83 143 368 65
293 79 341 116 397 46 69 52 70 420 79 469 11 1548 11 2024 -1 223 -6 406 -12
407 -13 5 -5 87 -1450 99 -1734 5 -113 4 -123 -12 -123 -37 0 -669 -61 -938
-90 -314 -35 -533 -61 -1270 -154 -1958 -248 -2452 -308 -2490 -302 -11 2 -27
-1 -35 -5 -8 -4 -109 -17 -225 -27 -159 -15 -213 -17 -224 -9 -11 9 -13 9 -8
0 5 -8 -15 -13 -70 -18 -43 -3 -87 -7 -98 -8 -11 -1 -26 3 -34 7 -9 6 -12 5
-8 -1 4 -6 -16 -10 -49 -11 -31 0 -52 3 -49 9 3 5 -1 6 -9 3 -9 -3 -14 -9 -12
-13 2 -3 -23 -7 -55 -9 -37 -1 -59 2 -59 9 0 6 -7 3 -16 -5 -20 -20 -41 -22
-25 -2 11 13 -57 15 -509 16 -465 0 -522 -1 -516 -15 8 -21 -37 -20 -58 1 -12
12 -16 12 -16 2 0 -10 -3 -9 -10 2 -6 10 -10 11 -10 3 0 -7 -9 -13 -20 -13
-11 0 -20 4 -20 8 0 5 -19 9 -42 9 -54 0 -120 9 -183 23 -28 7 -61 14 -75 16
-57 10 -250 77 -250 87 0 6 -3 7 -7 4 -13 -14 -168 80 -237 144 -89 84 -133
158 -184 312 -94 282 -143 651 -187 1387 -28 475 -31 1461 -5 1945 60 1160
190 2142 342 2583 73 213 152 338 318 503 408 404 1022 631 1890 698 180 14
954 5 1170 -13z m425 -1452 c87 -22 311 -135 535 -269 277 -167 526 -308 663
-376 64 -33 117 -61 117 -63 0 -14 -54 -261 -75 -346 -116 -460 -175 -600
-316 -742 -160 -161 -165 -386 -12 -549 25 -27 64 -59 87 -73 67 -39 231 -92
484 -155 584 -146 1079 -235 1662 -298 237 -25 686 -25 825 1 197 36 345 96
450 182 l57 46 -6 -49 c-41 -329 -151 -1685 -180 -2238 -28 -516 -30 -550 -33
-520 -1 17 -14 239 -28 495 -50 906 -74 1253 -90 1307 -20 67 -90 161 -151
201 -86 58 -110 61 -563 73 -505 14 -2359 6 -2466 -10 -141 -22 -273 -111
-363 -245 -66 -98 -100 -199 -158 -461 -26 -121 -52 -223 -58 -227 -31 -21
-636 -128 -886 -158 -146 -17 -301 -26 -306 -18 -9 15 -24 261 -24 414 -1 528
69 1251 220 2295 121 835 227 1339 350 1652 57 147 57 147 138 147 37 0 95 -7
127 -16z m-16100 -4743 c64 -21 78 -32 161 -115 112 -112 191 -230 294 -441
144 -293 399 -910 383 -926 -11 -11 -363 -176 -583 -274 -284 -126 -602 -258
-1320 -547 -809 -326 -1058 -423 -1305 -506 -252 -85 -687 -224 -689 -220 -1
2 -21 66 -44 143 -43 147 -639 2149 -647 2175 -4 12 18 22 98 43 697 191 1795
469 2039 516 364 72 706 126 973 155 77 9 156 17 175 20 19 2 116 3 215 2 157
-2 189 -6 250 -25z m29431 -1147 c72 -30 289 -126 324 -144 19 -10 38 -18 42
-19 9 -2 76 -30 138 -59 25 -12 81 -37 125 -56 44 -20 79 -40 77 -46 -1 -7 2
-9 8 -5 13 8 52 -4 45 -15 -3 -4 2 -11 11 -14 9 -4 13 -2 8 5 -4 8 0 7 15 0
11 -7 21 -16 21 -22 0 -6 5 -7 11 -4 11 8 79 -22 79 -34 0 -4 -10 -16 -22 -27
-12 -10 -19 -14 -15 -8 3 6 -2 20 -11 30 -17 18 -38 19 -525 16 -364 -2 -506
-5 -504 -13 1 -7 -4 -14 -12 -16 -7 -3 -12 -1 -10 4 23 56 122 341 134 386 9
31 18 57 19 57 2 0 21 -7 42 -16z m-20056 -362 c0 -5 -7 -9 -15 -9 -8 0 -15 4
-15 9 0 4 7 8 15 8 8 0 15 -4 15 -8z m4118 -19 c-10 -2 -28 -2 -40 0 -13 2 -5
4 17 4 22 1 32 -1 23 -4z m282 -3 c-35 -11 -128 -12 -134 -1 -3 5 31 9 77 8
53 0 73 -2 57 -7z m307 4 c-3 -3 -12 -4 -19 -1 -8 3 -5 6 6 6 11 1 17 -2 13
-5z m7853 -6 c0 -12 -538 -9 -545 3 -5 6 84 9 269 7 152 -2 276 -6 276 -10z
m657 -5 c0 -12 -19 -18 -42 -14 -5 2 -112 2 -237 2 -172 -1 -228 2 -228 11 0
9 -3 9 -12 0 -18 -18 -118 -16 -118 2 0 12 51 14 318 13 249 -1 319 -5 319
-14z m5433 -39 c0 -16 -16 -19 -25 -4 -3 6 -1 10 5 10 6 0 8 5 4 12 -4 7 -3 8
4 4 7 -4 12 -14 12 -22z m2346 -6 c0 -10 -1 -18 -3 -18 -1 0 -7 8 -12 18 -7
13 -6 19 2 19 7 0 13 -9 13 -19z m-21287 -5 c0 -11 -3 -13 -6 -6 -3 10 -8 9
-20 -2 -22 -22 -36 -18 -15 4 22 25 42 26 41 4z m14046 -1 c-3 -3 -11 0 -18 7
-9 10 -8 11 6 5 10 -3 15 -9 12 -12z m55 8 c0 -5 -10 -10 -22 -9 -22 0 -22 1
-3 9 11 5 21 9 23 9 1 1 2 -3 2 -9z m7069 -11 c-7 -4 -17 -5 -22 -2 -5 3 -3 9
4 14 7 4 17 5 22 2 5 -3 3 -9 -4 -14z m150 8 c8 -10 7 -14 -2 -14 -8 0 -14 6
-14 14 0 7 1 13 2 13 2 0 8 -6 14 -13z m-1169 -22 c-6 -8 -8 -20 -4 -27 5 -10
4 -10 -5 -2 -13 12 -5 44 11 44 6 0 5 -6 -2 -15z m-22760 1 c0 -2 -9 -6 -20
-9 -11 -3 -18 -1 -14 4 5 9 34 13 34 5z m60 -16 c0 -5 -5 -10 -11 -10 -5 0 -7
5 -4 10 3 6 8 10 11 10 2 0 4 -4 4 -10z m2367 -15 c0 -8 -4 -12 -9 -9 -5 3 -6
10 -3 15 9 13 12 11 12 -6z m19137 -25 c-6 -6 -10 -3 -10 10 0 13 4 16 10 10
7 -7 7 -13 0 -20z m-21704 16 c0 -2 -8 -10 -17 -17 -16 -13 -17 -12 -4 4 13
16 21 21 21 13z m22890 -20 c8 -11 10 -17 4 -13 -7 4 -16 1 -22 -6 -19 -22
-62 -139 -55 -150 4 -6 1 -7 -7 -2 -10 6 -12 4 -7 -8 3 -9 2 -19 -4 -22 -9 -6
-49 -79 -49 -90 0 -3 6 -3 13 1 6 4 2 -3 -10 -15 -24 -23 -32 -57 -10 -45 10
6 10 4 0 -7 -15 -15 -17 -33 -4 -25 5 3 12 -1 15 -9 4 -13 2 -14 -14 -5 -11 6
-20 16 -21 23 0 7 -9 -8 -20 -31 -10 -24 -16 -49 -12 -55 3 -5 1 -7 -5 -3 -13
8 -26 -29 -16 -45 4 -8 3 -9 -4 -5 -7 4 -20 -9 -32 -31 -34 -62 -16 -18 68
162 43 94 101 223 128 287 26 64 49 116 49 115 0 -1 7 -11 15 -21z m-22850 4
c0 -5 -2 -10 -4 -10 -3 0 -8 5 -11 10 -3 6 -1 10 4 10 6 0 11 -4 11 -10z m-85
-30 c-3 -5 -12 -10 -18 -10 -7 0 -6 4 3 10 19 12 23 12 15 0z m21762 -12 c-3
-8 -6 -5 -6 6 -1 11 2 17 5 13 3 -3 4 -12 1 -19z m-26792 -17 c3 -5 2 -12 -3
-15 -5 -3 -9 1 -9 9 0 17 3 19 12 6z m29459 -18 c5 -13 4 -14 -8 -4 -11 9 -15
9 -19 -1 -3 -7 -4 -3 -4 8 1 24 22 22 31 -3z m-2654 -3 c0 -5 -2 -10 -4 -10
-3 0 -8 5 -11 10 -3 6 -1 10 4 10 6 0 11 -4 11 -10z m-26942 -44 c-10 -7 -15
-16 -11 -20 4 -4 -1 -4 -11 0 -13 5 -17 4 -12 -4 3 -6 1 -14 -5 -18 -8 -5 -9
-3 -4 6 5 9 1 10 -16 6 -13 -4 -4 5 21 18 50 28 64 32 38 12z m3367 2 c5 4 5
2 1 -5 -8 -14 -36 -6 -36 9 0 7 5 6 13 -1 8 -6 18 -7 22 -3z m1279 -6 c3 -5
-1 -9 -9 -9 -8 0 -12 4 -9 9 3 4 7 8 9 8 2 0 6 -4 9 -8z m22303 -14 c-3 -8 -6
-5 -6 6 -1 11 2 17 5 13 3 -3 4 -12 1 -19z m-2522 2 c3 -6 -1 -7 -9 -4 -18 7
-21 14 -7 14 6 0 13 -4 16 -10z m5305 -15 c-5 -7 -6 -15 -2 -20 4 -4 -4 -2
-18 5 -35 18 -39 24 -11 15 14 -4 21 -3 18 2 -4 5 0 10 8 10 10 0 12 -4 5 -12z
m-26237 -9 c6 -15 -17 -16 -30 -1 -4 4 -2 5 5 1 6 -4 12 -2 12 3 0 15 7 14 13
-3z m23465 -37 c-3 -8 -7 -3 -11 10 -4 17 -3 21 5 13 5 -5 8 -16 6 -23z
m-33583 -48 c13 -44 21 -58 30 -51 8 7 12 5 12 -5 0 -8 -5 -11 -10 -8 -6 4 -8
-3 -3 -18 11 -40 17 -75 9 -59 -18 42 -71 210 -64 206 4 -3 16 -32 26 -65z
m6506 52 c13 -16 12 -17 -3 -4 -17 13 -22 21 -14 21 2 0 10 -8 17 -17z m24726
-15 c-3 -8 -6 -5 -6 6 -1 11 2 17 5 13 3 -3 4 -12 1 -19z m34 9 c-6 -8 -7 -18
-3 -22 4 -5 1 -5 -6 -1 -10 6 -10 11 -1 22 6 8 14 14 16 14 3 0 0 -6 -6 -13z
m67 -23 c11 6 26 -23 17 -32 -3 -3 -5 0 -5 7 0 8 -7 11 -15 7 -8 -3 -15 -1
-15 4 0 5 -6 8 -12 6 -7 -1 -9 -1 -5 2 4 2 2 11 -5 20 -9 13 -7 12 9 -1 12
-11 26 -16 31 -13z m5222 -10 c0 -2 -9 0 -20 6 -11 6 -20 13 -20 16 0 2 9 0
20 -6 11 -6 20 -13 20 -16z m-30180 -9 c-7 -9 -15 -13 -19 -10 -3 3 1 10 9 15
21 14 24 12 10 -5z m2495 -242 c60 -261 59 -256 47 -249 -4 2 -9 19 -10 37 -1
17 -5 37 -9 42 -4 6 -8 25 -10 42 -2 16 -7 31 -12 33 -5 2 -7 11 -5 20 2 9 -9
69 -25 132 -20 82 -32 114 -42 112 -11 -3 -11 -1 -2 9 10 10 9 16 -4 31 -13
15 -14 20 -2 34 7 9 14 12 16 8 1 -5 27 -118 58 -251z m24722 205 c-3 -7 -5
-2 -5 12 0 14 2 19 5 13 2 -7 2 -19 0 -25z m-27297 -2 c0 -3 -4 -8 -10 -11 -5
-3 -10 -1 -10 4 0 6 5 11 10 11 6 0 10 -2 10 -4z m25240 -20 c-7 -7 -13 -7
-20 0 -6 6 -3 10 10 10 13 0 16 -4 10 -10z m5182 7 c-6 -2 -9 -10 -6 -15 4 -7
2 -8 -5 -4 -13 9 -5 26 12 25 9 0 8 -2 -1 -6z m-30451 -30 c12 -16 12 -17 -2
-6 -9 7 -20 9 -24 5 -5 -4 -5 -1 -1 6 9 16 11 15 27 -5z m25368 10 c14 11 14
10 2 -6 -9 -11 -18 -14 -24 -8 -5 5 -17 7 -26 4 -14 -4 -14 -3 -1 6 9 6 18 7
24 1 6 -6 16 -5 25 3z m5041 3 c0 -2 -7 -7 -16 -10 -8 -3 -12 -2 -9 4 6 10 25
14 25 6z m-3070 -60 c0 -26 -6 -18 -14 19 -5 22 -4 26 4 15 5 -8 10 -24 10
-34z m-1920 24 c0 -5 -2 -10 -4 -10 -3 0 -8 5 -11 10 -3 6 -1 10 4 10 6 0 11
-4 11 -10z m-25585 -20 c-3 -5 -12 -10 -18 -10 -7 0 -6 4 3 10 19 12 23 12 15
0z m25742 -13 c0 -8 -6 -14 -14 -14 -9 0 -10 4 -2 14 6 7 12 13 14 13 1 0 2
-6 2 -13z m-25782 -7 c-3 -6 4 -14 17 -19 13 -6 16 -10 8 -10 -23 -1 -54 26
-38 32 19 8 20 8 13 -3z m25840 -20 c3 -5 1 -10 -4 -10 -6 0 -11 5 -11 10 0 6
2 10 4 10 3 0 8 -4 11 -10z m1705 -91 c0 -55 -3 -98 -7 -96 -8 5 -5 197 3 197
2 0 4 -45 4 -101z m3273 86 c-3 -9 -8 -14 -10 -11 -3 3 -2 9 2 15 9 16 15 13
8 -4z m-34959 -558 c91 -306 166 -560 166 -563 0 -4 -6 -1 -13 5 -8 6 -17 7
-22 3 -4 -4 -1 3 6 16 9 15 10 25 4 30 -5 4 -10 12 -10 17 0 26 -49 185 -57
185 -5 0 -7 4 -3 9 3 5 -1 29 -9 53 -8 24 -17 58 -21 76 -4 18 -10 30 -14 27
-5 -2 -8 3 -8 13 2 34 -15 82 -25 76 -7 -5 -8 -2 -3 5 9 15 -34 173 -46 166
-4 -3 -6 3 -4 14 4 23 -20 109 -27 96 -3 -6 -3 -5 -2 2 2 7 -1 15 -5 18 -5 3
-7 15 -3 27 3 11 1 19 -4 16 -5 -4 -10 8 -10 25 -1 18 -7 46 -14 62 -7 17 -13
33 -12 36 3 16 -27 94 -36 92 -6 -1 -9 5 -7 15 2 9 4 23 4 31 1 8 3 12 5 10 2
-2 79 -255 170 -562z m-1839 484 c13 -44 21 -58 30 -51 8 7 12 5 12 -5 0 -8
-5 -11 -10 -8 -6 4 -8 -3 -3 -18 11 -40 17 -75 9 -59 -18 42 -71 210 -64 206
4 -3 16 -32 26 -65z m5882 44 c0 -8 -4 -12 -9 -9 -4 3 -8 9 -8 15 0 5 4 9 8 9
5 0 9 -7 9 -15z m26057 7 c3 -5 -1 -9 -9 -9 -8 0 -12 4 -9 9 3 4 7 8 9 8 2 0
6 -4 9 -8z m-26159 -42 c-3 -5 -12 -10 -18 -10 -7 0 -6 4 3 10 19 12 23 12 15
0z m102 -5 c0 -8 -4 -12 -9 -9 -5 3 -6 10 -3 15 9 13 12 11 12 -6z m-4216 -18
c-6 -8 -7 -18 -3 -22 4 -5 1 -5 -6 -1 -10 6 -10 11 -1 22 6 8 14 14 16 14 3 0
0 -6 -6 -13z m4026 -29 c-3 -8 -6 -5 -6 6 -1 11 2 17 5 13 3 -3 4 -12 1 -19z
m26537 14 c3 -5 -1 -9 -9 -9 -8 0 -12 4 -9 9 3 4 7 8 9 8 2 0 6 -4 9 -8z m55
5 c-2 -2 -11 -8 -20 -15 -12 -9 -16 -9 -16 1 0 7 9 14 20 14 11 1 18 1 16 0z
m6 -27 c3 -5 1 -10 -4 -10 -6 0 -11 5 -11 10 0 6 2 10 4 10 3 0 8 -4 11 -10z
m-30614 -17 c13 -17 13 -17 -6 -3 -11 8 -22 16 -24 17 -2 2 0 3 6 3 6 0 17 -8
24 -17z m30686 2 c0 -8 -4 -12 -9 -9 -5 3 -6 10 -3 15 9 13 12 11 12 -6z
m-26817 -30 c-7 -8 -19 -15 -26 -15 -8 0 -13 -5 -11 -11 1 -6 -4 -13 -11 -14
-7 -2 -8 -1 -3 1 6 3 7 12 4 20 -3 8 0 15 6 15 26 3 30 4 37 12 13 13 17 7 4
-8z m3244 -26 c-3 -5 -10 -7 -15 -3 -5 3 -7 10 -3 15 3 5 10 7 15 3 5 -3 7
-10 3 -15z m23890 13 c3 -5 -1 -9 -9 -9 -8 0 -12 4 -9 9 3 4 7 8 9 8 2 0 6 -4
9 -8z m1662 -51 c-31 -59 -32 -68 -8 -50 15 12 16 12 5 -2 -7 -9 -9 -20 -5
-25 4 -4 0 -3 -9 4 -14 10 -18 10 -22 -2 -3 -8 -4 -24 -2 -35 3 -15 0 -18 -12
-14 -12 5 -14 3 -8 -7 5 -9 4 -11 -3 -6 -8 5 4 37 35 101 26 52 49 93 51 91 2
-2 -8 -27 -22 -55z m-1761 40 c3 -5 2 -12 -3 -15 -5 -3 -9 1 -9 9 0 17 3 19
12 6z m46 -24 c-13 -13 -26 -3 -16 12 3 6 11 8 17 5 6 -4 6 -10 -1 -17z
m-27246 -17 c-3 -5 -12 -10 -18 -10 -7 0 -6 4 3 10 19 12 23 12 15 0z m28135
-21 c0 -11 -4 -18 -10 -14 -5 3 -7 12 -3 20 7 21 13 19 13 -6z m-33435 -11 c5
4 5 1 1 -5 -11 -20 -23 -15 -29 10 -5 20 -5 20 7 5 7 -10 17 -14 21 -10z
m5235 8 c0 -2 -6 -9 -14 -15 -11 -9 -16 -9 -22 0 -4 7 -3 9 4 5 6 -3 13 -2 17
4 6 10 15 14 15 6z m27640 -25 c-5 -11 -15 -23 -21 -27 -6 -3 -3 5 6 20 20 30
30 35 15 7z m-49 -14 c-10 -9 -11 -8 -5 6 3 10 9 15 12 12 3 -3 0 -11 -7 -18z
m-32821 -12 c4 3 6 -3 3 -14 -3 -11 4 -27 19 -41 12 -13 17 -19 9 -15 -11 6
-13 3 -7 -16 17 -64 14 -67 -8 -7 -23 64 -42 126 -30 100 3 -6 9 -10 14 -7z
m5025 -35 c-3 -5 -12 -10 -18 -10 -7 0 -6 4 3 10 19 12 23 12 15 0z m3800
-249 c31 -134 54 -245 51 -248 -3 -4 -13 26 -21 67 -22 110 -30 138 -37 134
-4 -3 -5 2 -2 10 3 9 3 24 -1 34 -9 19 -12 32 -19 80 -3 19 -8 38 -11 43 -7
11 -10 28 -18 94 -10 76 -2 50 58 -214z m24325 244 c0 -11 -29 -11 -33 -1 -4
10 1 12 14 9 10 -3 19 -7 19 -8z m-110 -1 c0 -8 -19 -13 -24 -6 -3 5 1 9 9 9
8 0 15 -2 15 -3z m-31365 -32 c-3 -3 -12 -7 -21 -8 -11 -2 -12 1 -5 10 6 7 7
17 3 22 -4 4 1 2 11 -5 9 -8 15 -16 12 -19z m31732 6 c-3 -8 -6 -5 -6 6 -1 11
2 17 5 13 3 -3 4 -12 1 -19z m-28332 2 c3 -6 -1 -7 -9 -4 -18 7 -21 14 -7 14
6 0 13 -4 16 -10z m-138 -15 c0 -8 -4 -12 -9 -9 -5 3 -6 10 -3 15 9 13 12 11
12 -6z m108 -5 c-3 -5 -12 -10 -18 -10 -7 0 -6 4 3 10 19 12 23 12 15 0z
m28322 -25 c0 -8 -4 -12 -9 -9 -5 3 -6 10 -3 15 9 13 12 11 12 -6z m24 -8
c-10 -9 -11 -8 -5 6 3 10 9 15 12 12 3 -3 0 -11 -7 -18z m1269 3 c-6 -11 -13
-20 -16 -20 -2 0 0 9 6 20 6 11 13 20 16 20 2 0 0 -9 -6 -20z m-1353 -7 c0 -9
-4 -10 -14 -2 -7 6 -13 12 -13 14 0 1 6 2 13 2 8 0 14 -6 14 -14z m1153 3 c-7
-7 -14 -6 -21 1 -9 9 -7 12 9 10 14 -1 18 -5 12 -11z m43 -3 c-3 -7 -8 -13
-12 -13 -4 0 -8 6 -8 13 0 8 6 14 13 14 7 0 10 -6 7 -14z m2214 2 c0 -8 -4
-12 -9 -9 -5 3 -6 10 -3 15 9 13 12 11 12 -6z m-31942 -25 c3 -6 -1 -7 -9 -4
-18 7 -21 14 -7 14 6 0 13 -4 16 -10z m85 6 c0 -3 -4 -8 -10 -11 -5 -3 -10 -1
-10 4 0 6 5 11 10 11 6 0 10 -2 10 -4z m28530 -6 c0 -5 -5 -10 -11 -10 -5 0
-7 5 -4 10 3 6 8 10 11 10 2 0 4 -4 4 -10z m1246 -2 c4 -7 4 -10 -1 -6 -4 4
-15 2 -24 -5 -14 -11 -14 -10 -2 6 16 20 18 21 27 5z m2094 -22 c0 -2 -8 -10
-17 -17 -16 -13 -17 -12 -4 4 13 16 21 21 21 13z m-36655 -28 c5 4 5 1 1 -5
-11 -20 -23 -15 -29 10 -5 20 -5 20 7 5 7 -10 17 -14 21 -10z m34862 -2 c0 -8
-6 -12 -14 -9 -7 3 -10 9 -7 14 8 14 21 11 21 -5z m-30269 -16 c-7 -10 -14
-17 -17 -15 -4 4 18 35 25 35 2 0 -1 -9 -8 -20z m30196 -9 c-2 -3 -12 3 -22
13 -16 17 -16 18 5 5 12 -7 20 -15 17 -18z m-30270 -20 c-2 -3 -12 3 -22 13
-16 17 -16 18 5 5 12 -7 20 -15 17 -18z m-4514 4 c4 3 6 -3 3 -14 -3 -11 4
-27 19 -41 12 -13 17 -19 9 -15 -11 6 -13 3 -7 -16 17 -64 14 -67 -8 -7 -23
64 -42 126 -30 100 3 -6 9 -10 14 -7z m4455 -5 c3 -6 -1 -7 -9 -4 -18 7 -21
14 -7 14 6 0 13 -4 16 -10z m4249 -26 c3 -8 2 -12 -4 -9 -6 3 -10 10 -10 16 0
14 7 11 14 -7z m26400 -19 c-5 -11 -9 -12 -19 -2 -9 8 -10 14 -2 19 16 9 27 0
21 -17z m40 -11 c3 -8 2 -12 -4 -9 -6 3 -10 10 -10 16 0 14 7 11 14 -7z
m-30832 -18 c4 3 9 1 12 -4 3 -6 -1 -9 -10 -8 -9 1 -21 11 -26 22 -9 18 -8 18
5 2 8 -10 16 -15 19 -12z m30912 -1 c-4 -8 -11 -15 -16 -15 -6 0 -5 6 2 15 7
8 14 15 16 15 2 0 1 -7 -2 -15z m71 -33 c-3 -3 -11 0 -18 7 -9 10 -8 11 6 5
10 -3 15 -9 12 -12z m88 -9 c-3 -7 -8 -13 -12 -13 -4 0 -8 6 -8 13 0 8 6 14
13 14 7 0 10 -6 7 -14z m-31195 -13 c-7 -11 -17 -20 -22 -20 -5 0 -1 9 9 20
10 11 20 20 22 20 2 0 -2 -9 -9 -20z m31241 13 c-3 -21 3 -24 19 -12 15 13 16
12 3 -4 -9 -12 -17 -14 -26 -7 -6 5 -16 6 -21 2 -4 -4 -2 1 5 11 14 18 22 22
20 10z m-31309 -45 c0 -12 -6 -9 -26 13 -19 22 -19 22 4 8 12 -8 22 -17 22
-21z m-58 15 c-6 -2 -10 -9 -7 -14 4 -5 -1 -6 -10 -2 -13 5 -14 7 -3 14 7 5
18 8 23 8 6 0 4 -3 -3 -6z m31457 -16 c0 -9 -2 -8 -6 1 -2 6 -10 9 -15 6 -7
-4 -8 -2 -4 5 9 13 26 5 25 -12z m-35444 -29 c5 4 5 1 1 -5 -11 -20 -23 -15
-29 10 -5 20 -5 20 7 5 7 -10 17 -14 21 -10z m3910 1 c-3 -12 -7 -24 -11 -28
-4 -3 -4 2 -1 12 4 10 1 17 -6 17 -8 0 -6 4 3 10 20 13 19 13 15 -11z m31787
3 c9 -9 8 -12 -4 -12 -8 0 -21 6 -27 14 -10 11 -9 14 4 12 8 -1 21 -8 27 -14z
m-31862 -27 c-14 -17 -30 -20 -30 -4 0 5 4 8 9 4 5 -3 12 -1 16 5 3 5 9 10 12
10 3 0 0 -7 -7 -15z m31804 6 c4 -5 -3 -7 -14 -4 -23 6 -26 13 -6 13 8 0 17
-4 20 -9z m-35634 -26 c4 3 6 -3 3 -14 -3 -11 4 -27 19 -41 12 -13 17 -19 9
-15 -11 6 -13 3 -7 -16 17 -64 14 -67 -8 -7 -23 64 -42 126 -30 100 3 -6 9
-10 14 -7z m35934 -35 c-14 -14 -56 -22 -49 -9 4 5 10 7 14 5 4 -3 13 -1 21 5
20 12 26 11 14 -1z m96 -16 c0 -8 -19 -13 -24 -6 -3 5 1 9 9 9 8 0 15 -2 15
-3z m-32450 -24 c0 -5 -8 -10 -17 -10 -15 0 -16 2 -3 10 19 12 20 12 20 0z
m5225 -333 c41 -181 75 -333 75 -339 0 -12 -15 -2 -15 10 -3 32 -19 110 -27
131 -6 14 -12 42 -14 63 -2 20 -9 49 -15 65 -7 15 -13 33 -14 38 -1 6 -3 15
-5 20 -1 6 -1 21 0 34 1 13 -2 21 -7 18 -4 -3 -9 7 -9 21 -2 32 -11 78 -29
147 -8 33 -18 49 -27 47 -10 -3 -10 -1 -1 9 10 10 9 16 -4 31 -13 15 -14 20
-2 34 7 9 14 12 16 8 1 -5 36 -157 78 -337z m27200 325 c-3 -3 -11 0 -18 7 -9
10 -8 11 6 5 10 -3 15 -9 12 -12z m236 -39 c13 -16 12 -17 -3 -4 -17 13 -22
21 -14 21 2 0 10 -8 17 -17z m-34568 -14 c5 -3 2 -9 -5 -12 -9 -3 -14 3 -15
15 -1 11 1 16 5 12 4 -5 11 -12 15 -15z m1767 1 c0 -5 -2 -10 -4 -10 -3 0 -8
5 -11 10 -3 6 -1 10 4 10 6 0 11 -4 11 -10z m95 -20 c3 -6 -1 -7 -9 -4 -18 7
-21 14 -7 14 6 0 13 -4 16 -10z m32790 -10 c3 -5 1 -10 -4 -10 -6 0 -11 5 -11
10 0 6 2 10 4 10 3 0 8 -4 11 -10z m-36250 -32 c5 4 5 1 1 -5 -11 -20 -23 -15
-29 10 -5 20 -5 20 7 5 7 -10 17 -14 21 -10z m36621 0 c-1 -17 4 -22 19 -21
11 1 14 0 7 -3 -10 -5 -8 -13 10 -33 13 -14 19 -23 14 -19 -5 4 -16 2 -25 -5
-14 -10 -14 -10 -4 4 7 9 10 19 6 22 -9 10 -34 -14 -26 -26 3 -6 1 -7 -6 -3
-6 4 -8 13 -4 19 10 15 11 29 3 42 -7 12 -5 45 4 45 2 0 3 -10 2 -22z m-245
-5 c13 -16 12 -17 -3 -4 -17 13 -22 21 -14 21 2 0 10 -8 17 -17z m-33204 -13
c-2 -11 -6 -22 -9 -26 -4 -3 -5 2 -3 13 2 10 4 21 4 26 1 4 3 7 6 7 3 0 4 -9
2 -20z m-30 -4 c0 -12 -12 -13 -37 -6 -3 1 4 5 15 10 11 5 20 9 21 9 0 1 1 -5
1 -13z m33287 5 c4 -5 -1 -8 -9 -7 -21 3 -31 16 -12 16 9 0 18 -4 21 -9z m62
-3 c3 -4 -1 -5 -10 -4 -8 1 -18 5 -22 8 -3 4 1 5 10 4 8 -1 18 -5 22 -8z
m-36486 -23 c4 3 6 -3 3 -14 -3 -11 4 -27 19 -41 12 -13 17 -19 9 -15 -11 6
-13 3 -7 -16 17 -64 14 -67 -8 -7 -23 64 -42 126 -30 100 3 -6 9 -10 14 -7z
m3000 -43 c0 -12 -3 -12 -15 -2 -8 7 -15 13 -15 15 0 1 7 2 15 2 8 0 15 -7 15
-15z m-65 -12 c3 -6 -1 -7 -9 -4 -18 7 -21 14 -7 14 6 0 13 -4 16 -10z m-66
-14 c-15 -13 -49 -25 -49 -17 0 5 8 12 18 14 24 6 36 8 31 3z m91 -6 c0 -5 -5
-10 -11 -10 -5 0 -7 5 -4 10 3 6 8 10 11 10 2 0 4 -4 4 -10z m-1261 -71 c7
-23 10 -43 8 -46 -3 -2 -8 9 -12 26 -4 17 -10 31 -14 31 -4 0 -8 7 -8 15 0 29
14 15 26 -26z m961 2 c0 -14 -29 -21 -36 -9 -4 6 -3 8 4 4 6 -3 13 -2 17 4 8
12 15 13 15 1z m-2585 -53 c5 4 5 1 1 -5 -11 -20 -23 -15 -29 10 -5 20 -5 20
7 5 7 -10 17 -14 21 -10z m2419 4 c3 -5 -1 -9 -9 -9 -8 0 -12 4 -9 9 3 4 7 8
9 8 2 0 6 -4 9 -8z m-730 -173 c15 -49 16 -48 -23 -40 -2 1 1 7 7 14 8 9 4 34
-13 92 -14 44 -25 85 -24 90 1 10 25 -61 53 -156z m-87 145 c-3 -3 -12 -4 -19
-1 -8 3 -5 6 6 6 11 1 17 -2 13 -5z m-1597 -19 c4 3 6 -3 3 -14 -3 -11 4 -27
19 -41 12 -13 17 -19 9 -15 -11 6 -13 3 -7 -16 17 -64 14 -67 -8 -7 -23 64
-42 126 -30 100 3 -6 9 -10 14 -7z m2110 -55 c0 -5 -2 -10 -4 -10 -3 0 -8 5
-11 10 -3 6 -1 10 4 10 6 0 11 -4 11 -10z m84 1 c4 -5 -3 -7 -14 -4 -23 6 -26
13 -6 13 8 0 17 -4 20 -9z m-109 -19 c-3 -3 -11 0 -18 7 -9 10 -8 11 6 5 10
-3 15 -9 12 -12z m-222 -78 c1 -4 -8 -9 -20 -10 -22 -4 -22 -3 -5 14 15 16 20
15 25 -4z m31 10 c3 -8 2 -12 -4 -9 -6 3 -10 10 -10 16 0 14 7 11 14 -7z
m-1824 -89 c10 -34 17 -45 28 -40 12 4 12 3 3 -9 -9 -11 -7 -27 11 -72 12 -33
23 -65 24 -72 4 -23 88 -267 93 -272 3 -3 7 -16 9 -29 1 -14 8 -31 15 -39 6
-8 12 -22 12 -31 1 -23 38 -141 44 -141 3 0 7 -11 7 -25 1 -14 8 -33 15 -41 7
-9 14 -26 15 -38 1 -24 35 -129 43 -136 3 -3 6 -11 7 -17 3 -39 5 -44 13 -38
5 3 13 0 17 -6 4 -8 3 -9 -4 -5 -7 4 -12 1 -12 -8 0 -9 4 -16 9 -16 4 0 11
-15 14 -33 3 -18 12 -50 21 -71 12 -29 20 -37 33 -32 16 5 16 5 -1 -8 -11 -9
-15 -19 -10 -28 5 -7 9 -19 10 -26 2 -8 6 -21 10 -30 4 -9 8 -24 10 -33 2 -9
12 -39 22 -65 14 -37 23 -49 38 -47 18 1 18 1 0 -12 -11 -9 -15 -18 -10 -27 5
-7 9 -19 10 -26 2 -8 6 -21 10 -30 4 -9 8 -24 10 -33 2 -9 12 -39 22 -65 14
-37 23 -49 38 -47 18 1 18 1 0 -12 -11 -9 -15 -18 -10 -27 5 -7 10 -22 11 -32
2 -11 8 -25 14 -33 6 -7 9 -13 6 -13 -5 0 23 -91 40 -130 3 -8 7 -18 8 -22 2
-5 4 -10 5 -13 4 -8 7 -24 9 -40 0 -8 8 -15 16 -15 8 0 15 -5 15 -11 0 -5 -4
-7 -10 -4 -13 8 -13 7 10 -60 11 -32 20 -63 19 -69 0 -6 -36 94 -79 223 -44
129 -77 237 -75 242 3 4 1 9 -3 11 -11 4 -83 218 -77 229 3 4 1 9 -3 11 -11 4
-83 218 -77 229 3 4 1 9 -4 11 -6 1 -102 279 -215 616 -113 337 -201 610 -197
608 5 -3 14 -26 21 -51z m41 32 c-10 -9 -11 -8 -5 6 3 10 9 15 12 12 3 -3 0
-11 -7 -18z m8426 -74 c-4 -3 -2 -11 3 -18 7 -8 5 -12 -4 -12 -8 0 -12 7 -11
16 5 22 4 21 12 21 3 0 3 -3 0 -7z m99 -19 c1 -9 0 -13 -4 -10 -3 4 -7 14 -8
22 -1 9 0 13 4 10 3 -4 7 -14 8 -22z m-106 -48 c0 -2 -7 -7 -16 -10 -8 -3 -12
-2 -9 4 6 10 25 14 25 6z m-54 -18 c4 -7 4 -10 -1 -6 -4 4 -14 3 -22 -4 -11
-8 -17 -8 -26 2 -7 7 -7 10 -2 7 6 -3 17 -2 25 4 19 11 18 11 26 -3z m-77 -31
c0 -9 -2 -9 -6 1 -2 6 -8 10 -13 7 -4 -3 -11 2 -14 10 -4 13 -2 14 14 5 11 -6
20 -16 19 -23z m-76 -22 c-3 -9 -8 -14 -10 -11 -3 3 -2 9 2 15 9 16 15 13 8
-4z m-8132 -28 c-10 -9 -11 -8 -5 6 3 10 9 15 12 12 3 -3 0 -11 -7 -18z m8006
-29 c-16 -10 -27 0 -20 19 4 11 3 14 -5 9 -7 -4 -12 -14 -12 -22 0 -8 -5 -12
-11 -9 -7 5 -4 14 7 26 16 18 18 18 34 2 11 -12 13 -20 7 -25z m43 22 c0 -5
-5 -10 -11 -10 -5 0 -7 5 -4 10 3 6 8 10 11 10 2 0 4 -4 4 -10z m-154 -62 c4
-7 4 -10 -1 -6 -4 4 -14 3 -21 -3 -8 -7 -14 -6 -20 2 -4 7 -3 9 4 5 6 -3 13
-2 17 4 8 13 12 13 21 -2z m-46 -22 c0 -2 -9 -6 -20 -9 -11 -3 -18 -1 -14 4 5
9 34 13 34 5z m-130 -16 c0 -5 -5 -10 -11 -10 -5 0 -7 5 -4 10 3 6 8 10 11 10
2 0 4 -4 4 -10z m50 -14 c0 -2 -7 -7 -16 -10 -8 -3 -12 -2 -9 4 6 10 25 14 25
6z m-215 -26 c-3 -5 -12 -10 -18 -10 -7 0 -6 4 3 10 19 12 23 12 15 0z m85
-22 c10 -3 7 -6 -9 -11 -13 -3 -20 -3 -17 0 3 4 0 13 -7 22 -10 14 -10 14 3 5
8 -6 22 -13 30 -16z m-215 -88 c4 -6 -1 -7 -11 -3 -11 4 -15 2 -11 -4 4 -6 0
-13 -8 -17 -8 -3 -17 0 -21 6 -4 6 -3 8 3 5 6 -4 13 0 17 8 6 17 22 20 31 5z
m-268 -66 c-3 -3 -12 -4 -19 -1 -8 3 -5 6 6 6 11 1 17 -2 13 -5z m43 2 c0 -2
-7 -7 -16 -10 -8 -3 -12 -2 -9 4 6 10 25 14 25 6z m23 -21 c-7 -21 -12 -19
-10 4 0 11 5 18 9 15 4 -3 5 -11 1 -19z m56 15 c-6 -5 -18 -6 -26 -3 -19 8
-16 11 13 11 17 0 22 -3 13 -8z m-79 -34 c0 -2 -7 -7 -16 -10 -8 -3 -12 -2 -9
4 6 10 25 14 25 6z m-160 -36 c0 -5 -5 -10 -11 -10 -5 0 -7 5 -4 10 3 6 8 10
11 10 2 0 4 -4 4 -10z m70 1 c0 -5 -7 -12 -16 -15 -14 -5 -15 -4 -4 9 14 17
20 19 20 6z m-93 -36 c0 -8 -4 -12 -9 -9 -5 3 -6 10 -3 15 9 13 12 11 12 -6z
m-22 -23 c-3 -3 -11 0 -18 7 -9 10 -8 11 6 5 10 -3 15 -9 12 -12z m-65 -24 c0
-4 -4 -8 -10 -8 -20 0 -25 -2 -40 -13 -9 -7 -8 -4 3 9 17 21 47 28 47 12z
m-113 -50 c-3 -8 -6 -5 -6 6 -1 11 2 17 5 13 3 -3 4 -12 1 -19z m-149 -58 c-7
-10 -14 -17 -17 -15 -4 4 18 35 25 35 2 0 -1 -9 -8 -20z m42 6 c0 -2 -7 -7
-16 -10 -8 -3 -12 -2 -9 4 6 10 25 14 25 6z m-110 -45 c0 -5 -7 -12 -16 -15
-14 -5 -15 -4 -4 9 14 17 20 19 20 6z m-52 -32 c-15 -10 -28 -2 -28 17 0 12 4
12 20 2 13 -8 16 -15 8 -19z m-68 -19 c13 -9 13 -10 0 -11 -8 -1 -18 -1 -22 0
-5 0 -8 -3 -8 -8 0 -14 -29 -21 -36 -9 -4 7 -3 8 4 4 6 -4 17 2 24 14 15 23
17 23 38 10z m-132 -60 c-7 -11 -17 -20 -22 -20 -5 0 -1 9 9 20 10 11 20 20
22 20 2 0 -2 -9 -9 -20z m-196 -67 c-6 -2 -10 -8 -7 -12 2 -5 -8 -19 -23 -32
l-27 -24 24 28 c14 15 21 27 17 27 -4 0 -4 5 -1 10 3 6 12 10 18 9 9 0 8 -2
-1 -6z m-142 -108 c0 -7 -30 -13 -34 -7 -3 4 4 9 15 9 10 1 19 0 19 -2z m-100
-46 c0 -13 -28 -18 -33 -6 -3 7 3 13 14 13 11 0 19 -3 19 -7z m-63 -31 c-3 -8
-6 -5 -6 6 -1 11 2 17 5 13 3 -3 4 -12 1 -19z m-42 -18 c3 -6 -1 -7 -9 -4 -18
7 -21 14 -7 14 6 0 13 -4 16 -10z m-55 -31 c0 -13 -28 -18 -33 -6 -3 7 3 13
14 13 11 0 19 -3 19 -7z m-63 -31 c-3 -8 -6 -5 -6 6 -1 11 2 17 5 13 3 -3 4
-12 1 -19z m-42 -18 c3 -6 -1 -7 -9 -4 -18 7 -21 14 -7 14 6 0 13 -4 16 -10z
m-55 -31 c0 -13 -28 -18 -33 -6 -3 7 3 13 14 13 11 0 19 -3 19 -7z m-63 -31
c-3 -8 -6 -5 -6 6 -1 11 2 17 5 13 3 -3 4 -12 1 -19z m-42 -18 c3 -6 -1 -7 -9
-4 -18 7 -21 14 -7 14 6 0 13 -4 16 -10z m-59 -32 c4 -7 3 -8 -4 -4 -7 4 -12
2 -12 -5 0 -7 -3 -10 -6 -6 -6 5 3 27 11 27 2 0 7 -5 11 -12z m-226 -83 c0 -2
-6 -5 -13 -8 -8 -3 -14 1 -14 8 0 7 6 11 14 8 7 -3 13 -6 13 -8z m-43 -10 c0
-8 -4 -12 -9 -9 -5 3 -6 10 -3 15 9 13 12 11 12 -6z m97 6 c3 -5 -1 -11 -9
-14 -9 -4 -12 -1 -8 9 6 16 10 17 17 5z m-54 -36 c0 -7 -30 -13 -34 -7 -3 4 4
9 15 9 10 1 19 0 19 -2z m-135 -45 c-3 -5 -12 -10 -18 -10 -7 0 -6 4 3 10 19
12 23 12 15 0z m-61 -49 c3 -5 -1 -11 -9 -14 -9 -4 -12 -1 -8 9 6 16 10 17 17
5z m-57 -26 c0 -8 -4 -12 -9 -9 -5 3 -6 10 -3 15 9 13 12 11 12 -6z m-72 -25
c-3 -5 -1 -10 5 -10 6 0 8 -5 4 -11 -4 -8 -9 -7 -15 2 -12 19 -11 29 2 29 5 0
7 -4 4 -10z m-121 -92 c-3 -5 -10 -6 -15 -3 -5 4 -9 2 -9 -3 0 -5 -12 -14 -27
-21 l-28 -12 29 24 c28 23 61 33 50 15z m-121 -53 c9 2 15 -1 11 -6 -3 -5 -9
-7 -14 -4 -4 3 -10 1 -12 -5 -2 -6 -9 0 -17 12 -12 20 -12 21 0 12 8 -6 22
-10 32 -9z m-4096 -60 c0 -8 -4 -12 -9 -9 -5 3 -6 10 -3 15 9 13 12 11 12 -6z
m3953 0 c0 -2 -7 -5 -15 -9 -9 -3 -15 0 -15 9 0 9 6 12 15 9 8 -4 15 -7 15 -9z
m45 6 c3 -5 1 -12 -5 -16 -5 -3 -10 1 -10 9 0 18 6 21 15 7z m-45 -30 c0 -5
-7 -12 -16 -15 -14 -5 -15 -4 -4 9 14 17 20 19 20 6z m-73 -43 c-3 -8 -6 -5
-6 6 -1 11 2 17 5 13 3 -3 4 -12 1 -19z m33 18 c0 -3 -4 -8 -10 -11 -5 -3 -10
-1 -10 4 0 6 5 11 10 11 6 0 10 -2 10 -4z m-50 -30 c0 -2 -7 -7 -16 -10 -8 -3
-12 -2 -9 4 6 10 25 14 25 6z m-135 -16 c-3 -5 -1 -10 6 -10 7 0 10 -3 6 -6
-9 -9 -28 6 -22 17 4 5 8 9 11 9 3 0 2 -4 -1 -10z m95 -5 c0 -2 -9 -9 -20 -15
-12 -6 -20 -7 -20 -1 0 5 8 12 18 14 9 3 18 5 20 6 1 0 2 -1 2 -4z m-143 -70
c0 -8 -4 -12 -9 -9 -5 3 -6 10 -3 15 9 13 12 11 12 -6z m-47 -36 c0 -4 -8 -10
-17 -14 -14 -5 -15 -3 -6 6 6 6 9 19 6 28 -4 14 -3 14 6 1 6 -8 11 -18 11 -21z
m-48 -18 c8 11 9 11 5 -1 -2 -8 -10 -14 -16 -12 -6 1 -11 -3 -11 -9 0 -5 -4
-7 -10 -4 -6 4 -5 11 3 20 7 8 13 9 16 3 2 -6 7 -4 13 3z m-3502 -108 c0 -7 7
-13 15 -13 8 0 15 -5 15 -11 0 -5 -4 -7 -10 -4 -13 8 -13 7 10 -60 11 -32 20
-63 19 -69 0 -6 -16 34 -35 89 -40 117 -49 151 -29 110 8 -16 14 -36 15 -42z
m3247 20 c-4 -3 -1 -13 6 -22 11 -14 10 -14 -5 -2 -16 12 -16 31 -1 31 4 0 3
-3 0 -7z m113 -2 c0 -5 -7 -12 -16 -15 -14 -5 -15 -4 -4 9 14 17 20 19 20 6z
m-45 -31 c-5 -8 -11 -8 -19 -1 -7 6 -17 7 -21 3 -5 -4 -5 -1 -1 6 6 11 11 11
24 0 14 -11 15 -10 8 7 -5 15 -4 17 5 8 6 -6 8 -16 4 -23z m-25 -14 c0 -2 -7
-6 -15 -10 -8 -3 -15 -1 -15 4 0 6 7 10 15 10 8 0 15 -2 15 -4z m-40 -20 c0
-3 -4 -8 -10 -11 -5 -3 -10 -1 -10 4 0 6 5 11 10 11 6 0 10 -2 10 -4z m-31
-19 c-2 -1 -13 -9 -24 -17 -19 -14 -19 -14 -6 3 7 9 18 17 24 17 6 0 8 -1 6
-3z m-54 -27 c3 -6 -1 -7 -9 -4 -18 7 -21 14 -7 14 6 0 13 -4 16 -10z m-35
-26 c0 -8 -19 -13 -24 -6 -3 5 1 9 9 9 8 0 15 -2 15 -3z m-55 -26 c5 4 5 1 1
-6 -6 -10 -11 -10 -22 -1 -8 6 -14 14 -14 16 0 3 6 0 13 -6 8 -6 18 -7 22 -3z
m-34 -15 c7 -10 9 -15 5 -11 -5 4 -15 0 -23 -10 -13 -15 -13 -15 -4 5 8 16 8
23 -2 26 -7 4 -8 6 -1 6 6 1 18 -7 25 -16z m-2961 -80 c0 -7 7 -13 15 -13 8 0
15 -5 15 -11 0 -5 -5 -7 -12 -3 -8 5 -9 2 -4 -12 5 -10 10 -28 12 -39 6 -26
-41 92 -50 125 -5 21 -3 20 9 -5 8 -16 14 -36 15 -42z m2917 54 c0 -8 -6 -14
-14 -14 -9 0 -10 4 -2 14 6 7 12 13 14 13 1 0 2 -6 2 -13z m-67 -52 c0 -2 -10
-9 -22 -15 -22 -11 -22 -10 -4 4 21 17 26 19 26 11z m-50 -29 c0 -3 -4 -8 -10
-11 -5 -3 -10 -1 -10 4 0 6 5 11 10 11 6 0 10 -2 10 -4z m-50 -31 c0 -2 -9 -9
-20 -15 -12 -6 -20 -7 -20 -1 0 5 8 12 18 14 9 3 18 5 20 6 1 0 2 -1 2 -4z
m-2697 -81 c-3 -8 -7 -14 -10 -14 -3 0 -3 7 1 15 3 8 1 15 -4 15 -6 0 -10 5
-10 11 0 8 4 8 14 -1 8 -6 12 -18 9 -26z m2616 33 c-2 -1 -13 -9 -24 -17 -19
-14 -19 -14 -6 3 7 9 18 17 24 17 6 0 8 -1 6 -3z m-109 -31 c0 -3 -4 -8 -10
-11 -5 -3 -10 -1 -10 4 0 6 5 11 10 11 6 0 10 -2 10 -4z m-2488 -19 c-13 -16
-4 -59 11 -50 6 3 7 1 3 -5 -4 -7 -1 -12 6 -12 9 0 9 -3 -2 -10 -11 -7 -11
-10 -2 -10 7 0 10 -4 7 -10 -3 -5 -3 -16 2 -22 4 -7 9 -24 10 -38 1 -14 -11
13 -27 59 -22 63 -27 88 -19 98 6 7 14 13 16 13 3 0 1 -6 -5 -13z m2484 -22
c-10 -8 -23 -12 -27 -9 -5 3 -9 1 -9 -4 0 -6 -15 -19 -34 -30 -25 -15 -33 -17
-29 -6 3 8 11 14 18 14 6 0 20 9 30 20 10 11 21 18 24 15 4 -2 13 0 21 6 23
14 27 10 6 -6z m-146 -78 c0 5 7 10 16 10 15 0 14 -2 -1 -13 -10 -8 -22 -11
-26 -8 -5 3 -9 1 -9 -4 0 -5 -12 -17 -27 -27 l-28 -17 28 27 c16 15 24 31 20
38 -4 7 0 6 10 -2 9 -7 17 -9 17 -4z m-110 -45 c0 -4 -6 -14 -12 -21 -11 -12
-9 -13 7 -7 16 5 16 3 -4 -13 -14 -10 -31 -16 -40 -13 -10 4 -12 1 -6 -9 4 -8
5 -11 0 -7 -4 4 -15 0 -23 -10 -8 -9 -6 -4 3 12 15 24 15 28 2 23 -16 -6 -18
16 -2 30 4 4 5 3 1 -4 -3 -6 1 -14 11 -17 30 -10 38 -7 39 14 1 11 2 22 3 25
2 8 21 6 21 -3z m24 -8 c3 -8 2 -12 -4 -9 -6 3 -10 10 -10 16 0 14 7 11 14 -7z
m-2191 -70 c-3 -8 -7 -14 -10 -14 -3 0 -3 7 1 15 3 8 1 15 -4 15 -6 0 -10 5
-10 11 0 8 4 8 14 -1 8 -6 12 -18 9 -26z m2037 1 c0 -2 -6 -8 -13 -14 -10 -8
-14 -7 -14 2 0 8 6 14 14 14 7 0 13 -1 13 -2z m-2018 -18 c-13 -16 -4 -59 11
-50 6 3 7 1 3 -5 -4 -7 -1 -12 6 -12 9 0 9 -3 -2 -10 -11 -7 -11 -10 -2 -10 7
0 10 -4 7 -10 -3 -5 -3 -16 2 -22 4 -7 9 -24 10 -38 1 -14 -11 13 -27 59 -22
63 -27 88 -19 98 6 7 14 13 16 13 3 0 1 -6 -5 -13z m1998 -31 c0 -3 -4 -8 -10
-11 -5 -3 -10 -1 -10 4 0 6 5 11 10 11 6 0 10 -2 10 -4z m-155 -56 c-3 -5 -12
-10 -18 -10 -7 0 -6 4 3 10 19 12 23 12 15 0z m-74 -84 c-1 -3 -4 -7 -8 -8 -5
0 -14 -8 -21 -17 -10 -12 -12 -13 -6 -1 16 33 38 49 35 26z m-1708 -53 c-5
-12 -2 -15 9 -11 8 4 15 1 15 -8 0 -7 -4 -11 -9 -8 -10 6 -10 1 -2 -20 3 -9
10 -14 14 -11 5 3 12 0 16 -6 4 -8 3 -9 -4 -5 -7 4 -12 1 -12 -7 0 -16 35
-121 47 -140 4 -6 9 -21 10 -32 6 -36 64 -205 73 -210 5 -3 7 -12 3 -20 -3 -8
0 -15 6 -15 6 0 8 -7 4 -17 -4 -11 -3 -14 5 -9 8 5 10 2 6 -9 -4 -9 -8 -14
-11 -12 -10 11 -182 541 -177 548 3 5 0 9 -5 9 -6 0 -11 5 -11 11 0 8 4 8 14
-1 8 -6 12 -19 9 -27z m1573 -28 c-1 -8 -5 -17 -8 -21 -5 -4 -4 16 1 34 3 9 9
-1 7 -13z m-106 -74 c0 -6 -4 -12 -8 -15 -5 -3 -9 1 -9 9 0 8 4 15 9 15 4 0 8
-4 8 -9z m-30 -27 c0 -8 -19 -13 -24 -6 -3 5 1 9 9 9 8 0 15 -2 15 -3z m-30
-18 c0 -3 -4 -8 -10 -11 -5 -3 -10 -1 -10 4 0 6 5 11 10 11 6 0 10 -2 10 -4z
m-30 -22 c0 -8 -19 -13 -24 -6 -3 5 1 9 9 9 8 0 15 -2 15 -3z m-85 -43 c3 -5
2 -12 -3 -15 -5 -3 -9 1 -9 9 0 17 3 19 12 6z m-67 -44 c6 0 9 -3 6 -6 -3 -3
-9 -6 -12 -5 -4 1 -13 -6 -20 -15 -8 -9 -11 -10 -7 -3 9 18 -5 38 -16 21 -7
-11 -9 -10 -9 4 0 15 5 17 23 11 12 -4 28 -7 35 -7z m-1093 -37 c-3 -5 -12
-10 -18 -10 -7 0 -6 4 3 10 19 12 23 12 15 0z m1045 -4 c0 -3 -4 -8 -10 -11
-5 -3 -10 -1 -10 4 0 6 5 11 10 11 6 0 10 -2 10 -4z m-30 -21 c0 -2 -10 -9
-22 -15 -22 -11 -22 -10 -4 4 21 17 26 19 26 11z m-50 -29 c0 -2 -11 -11 -25
-20 -14 -9 -25 -13 -25 -8 0 5 10 14 23 20 27 13 27 13 27 8z m-190 -91 c0 -2
-6 -5 -13 -8 -8 -3 -14 1 -14 8 0 7 6 11 14 8 7 -3 13 -6 13 -8z m70 9 c0 -8
-19 -13 -24 -6 -3 5 1 9 9 9 8 0 15 -2 15 -3z m-30 -18 c0 -2 -10 -11 -23 -19
-19 -12 -24 -13 -24 -2 0 8 3 12 7 10 3 -2 12 0 20 6 17 10 20 11 20 5z m-94
-51 c-5 -32 -66 -54 -66 -23 0 7 5 6 14 -1 11 -9 17 -6 30 14 19 29 25 32 22
10z m-658 -71 c0 -15 3 -29 8 -33 5 -3 10 -19 11 -36 2 -24 -2 -19 -16 20 -10
28 -16 56 -13 63 7 19 10 15 10 -14z m534 -18 c7 4 8 2 4 -5 -9 -14 -36 3 -36
23 0 6 5 3 11 -7 6 -9 15 -14 21 -11z m-62 -11 c0 -2 -6 -5 -13 -8 -8 -3 -14
1 -14 8 0 7 6 11 14 8 7 -3 13 -6 13 -8z m40 -9 c0 -2 -10 -11 -23 -19 -19
-12 -24 -13 -24 -2 0 8 3 12 7 10 3 -2 12 0 20 6 17 10 20 11 20 5z m-94 -51
c-1 -8 -5 -17 -8 -21 -5 -4 -4 16 1 34 3 9 9 -1 7 -13z m34 11 c0 -3 -4 -8
-10 -11 -5 -3 -10 -1 -10 4 0 6 5 11 10 11 6 0 10 -2 10 -4z m-404 -69 c3 -17
11 -43 15 -56 8 -20 12 -21 27 -10 16 13 16 12 1 -6 -16 -21 -15 -55 2 -55 6
0 7 -5 3 -11 -3 -6 -1 -15 6 -19 8 -5 9 -10 2 -14 -9 -5 -27 34 -36 77 -2 7
-6 19 -9 27 -10 22 -37 102 -37 107 0 2 4 2 9 -2 5 -3 13 -20 17 -38z m344 27
c0 -8 -19 -13 -24 -6 -3 5 1 9 9 9 8 0 15 -2 15 -3z m-295 -33 c3 -5 2 -12 -3
-15 -5 -3 -9 1 -9 9 0 17 3 19 12 6z m235 0 c0 -6 -4 -12 -8 -15 -5 -3 -9 1
-9 9 0 8 4 15 9 15 4 0 8 -4 8 -9z m-38 -33 c-7 -7 -12 -8 -12 -2 0 14 12 26
19 19 2 -3 -1 -11 -7 -17z m-22 -12 c0 -2 -12 -11 -27 -20 l-28 -17 24 20 c23
21 31 25 31 17z m-90 -59 c0 -2 -13 -13 -30 -25 -17 -13 -27 -17 -24 -8 3 7
15 18 27 24 26 13 27 13 27 9z"/>
<path d="M27220 26789 c0 -6 6 -9 13 -6 6 2 21 0 32 -6 15 -7 17 -7 9 2 -14
15 -54 22 -54 10z"/>
<path d="M27115 26780 c-16 -7 -17 -9 -3 -9 9 -1 20 4 23 9 7 11 7 11 -20 0z"/>
<path d="M27180 26786 c0 -2 7 -6 15 -10 8 -3 15 -1 15 4 0 6 -7 10 -15 10 -8
0 -15 -2 -15 -4z"/>
<path d="M26976 26763 c-7 -8 -11 -9 -38 -12 -9 -1 -9 -4 1 -10 10 -6 23 -5
35 2 12 6 25 10 29 9 5 -1 6 2 2 8 -7 12 -19 13 -29 3z"/>
<path d="M27008 26748 c-12 -12 -14 -18 -5 -18 20 0 36 15 29 26 -4 6 -13 3
-24 -8z"/>
<path d="M26896 26751 c-3 -5 0 -11 7 -14 8 -3 14 1 14 9 0 16 -13 19 -21 5z"/>
<path d="M26856 26738 c3 -5 10 -6 15 -3 13 9 11 12 -6 12 -8 0 -12 -4 -9 -9z"/>
<path d="M26902 26705 c-7 -8 -8 -15 -3 -15 5 0 13 5 16 10 5 8 12 7 23 -2 15
-12 16 -11 3 5 -16 20 -22 21 -39 2z"/>
<path d="M28805 25830 c-3 -5 -1 -10 4 -10 6 0 11 5 11 10 0 6 -2 10 -4 10 -3
0 -8 -4 -11 -10z"/>
<path d="M37832 26195 c0 -16 2 -22 5 -12 2 9 2 23 0 30 -3 6 -5 -1 -5 -18z"/>
<path d="M37841 26104 c1 -32 5 -88 9 -124 6 -45 7 -29 3 55 -6 124 -14 174
-12 69z"/>
<path d="M39535 25340 c6 -30 16 -40 12 -12 -2 12 -6 24 -10 28 -3 4 -4 -4 -2
-16z"/>
<path d="M38711 25264 c0 -11 3 -14 6 -6 3 7 2 16 -1 19 -3 4 -6 -2 -5 -13z"/>
<path d="M39544 25259 c-4 -7 -3 -9 4 -5 5 3 13 0 15 -6 4 -9 6 -10 6 -1 1 17
-16 25 -25 12z"/>
<path d="M38703 25185 c0 -8 4 -12 9 -9 5 3 6 10 3 15 -9 13 -12 11 -12 -6z"/>
<path d="M37780 25011 c0 -5 5 -13 10 -16 6 -3 10 -2 10 4 0 5 -4 13 -10 16
-5 3 -10 2 -10 -4z"/>
<path d="M37816 25012 c-3 -5 1 -9 9 -9 8 0 12 4 9 9 -3 4 -7 8 -9 8 -2 0 -6
-4 -9 -8z"/>
<path d="M37935 24989 c-4 -6 -5 -12 -2 -15 2 -3 7 2 10 11 7 17 1 20 -8 4z"/>
<path d="M37820 24930 c0 -5 5 -10 11 -10 5 0 7 5 4 10 -3 6 -8 10 -11 10 -2
0 -4 -4 -4 -10z"/>
<path d="M37826 24876 c6 -15 4 -17 -6 -11 -8 5 -11 4 -6 -3 3 -5 1 -12 -6
-14 -8 -3 -6 -7 4 -11 21 -8 35 30 18 47 -8 8 -9 6 -4 -8z"/>
<path d="M37928 24868 c10 -13 10 -17 0 -21 -9 -4 -9 -6 -1 -6 20 -2 24 16 5
30 -15 13 -16 12 -4 -3z"/>
<path d="M30156 26954 c-9 -26 -14 -49 -12 -51 2 -2 11 17 20 43 9 26 14 49
12 51 -2 2 -11 -17 -20 -43z"/>
<path d="M30621 26974 c0 -11 3 -14 6 -6 3 7 2 16 -1 19 -3 4 -6 -2 -5 -13z"/>
<path d="M30613 26935 c-3 -9 -3 -18 -1 -21 3 -3 8 4 11 16 6 23 -1 27 -10 5z"/>
<path d="M30126 26875 c-3 -9 -6 -22 -5 -28 0 -7 5 -1 10 12 5 13 8 26 5 28
-2 2 -6 -3 -10 -12z"/>
<path d="M30595 26835 c-3 -26 -4 -49 -2 -51 3 -3 8 16 12 41 3 26 4 49 2 51
-3 3 -8 -16 -12 -41z"/>
<path d="M30101 26789 c-7 -22 -11 -43 -8 -45 2 -2 9 14 16 37 7 22 11 43 8
45 -2 2 -9 -14 -16 -37z"/>
<path d="M30581 26744 c0 -11 3 -14 6 -6 3 7 2 16 -1 19 -3 4 -6 -2 -5 -13z"/>
<path d="M30576 26705 c-3 -9 -5 -31 -5 -48 1 -27 3 -24 9 13 8 48 6 61 -4 35z"/>
<path d="M30066 26678 c-25 -87 -85 -341 -89 -378 l-6 -45 11 45 c6 25 30 124
54 220 24 96 42 176 40 177 -2 2 -6 -7 -10 -19z"/>
<path d="M30563 26585 c0 -22 2 -30 4 -17 2 12 2 30 0 40 -3 9 -5 -1 -4 -23z"/>
<path d="M30553 26495 c0 -27 2 -38 4 -22 2 15 2 37 0 50 -2 12 -4 0 -4 -28z"/>
<path d="M30535 26327 c-4 -64 -5 -121 -3 -129 3 -7 8 43 12 111 4 67 5 125 3
128 -3 2 -8 -47 -12 -110z"/>
<path d="M29955 26205 c-3 -26 -4 -49 -2 -51 3 -3 8 16 12 41 3 26 4 49 2 51
-3 3 -8 -16 -12 -41z"/>
<path d="M29851 25661 c-12 -7 -12 -13 -3 -24 7 -7 9 -16 6 -19 -3 -3 -1 -9 4
-12 11 -7 10 19 -1 30 -4 4 -2 13 4 21 13 15 10 16 -10 4z"/>
<path d="M29843 25585 c0 -8 4 -12 9 -9 5 3 6 10 3 15 -9 13 -12 11 -12 -6z"/>
<path d="M29845 25479 c-4 -6 -5 -12 -2 -15 2 -3 7 2 10 11 7 17 1 20 -8 4z"/>
<path d="M32503 24970 c0 -25 2 -35 4 -22 2 12 2 32 0 45 -2 12 -4 2 -4 -23z"/>
<path d="M32521 24973 c-1 -23 3 -44 7 -47 4 -2 6 12 4 32 -5 56 -10 62 -11
15z"/>
<path d="M32503 24810 c0 -25 2 -35 4 -22 2 12 2 32 0 45 -2 12 -4 2 -4 -23z"/>
<path d="M23857 18275 c-55 -8 -149 -23 -210 -35 -243 -47 -1525 -345 -1539
-358 -5 -5 1375 -4442 1387 -4459 5 -9 947 241 1315 348 312 91 581 225 686
341 50 55 100 165 115 251 79 468 -391 2322 -801 3162 -183 374 -357 638 -471
716 -23 16 -65 31 -102 38 -83 14 -257 12 -380 -4z m330 -424 c127 -174 307
-524 427 -826 280 -710 568 -1832 616 -2402 15 -165 9 -221 -27 -263 -34 -41
-214 -128 -383 -184 -207 -69 -1057 -302 -1067 -292 -3 3 -267 842 -587 1865
l-582 1859 105 26 c94 22 327 76 651 151 431 99 563 122 710 123 l95 1 42 -58z"/>
<path d="M22450 9399 c0 -5 5 -7 10 -4 6 3 10 8 10 11 0 2 -4 4 -10 4 -5 0
-10 -5 -10 -11z"/>
<path d="M22478 9345 c3 -20 10 -20 805 -17 610 2 803 6 809 15 6 9 8 9 8 0 0
-15 38 -17 60 -3 13 8 13 10 0 14 -8 3 -391 7 -851 8 -831 3 -835 3 -831 -17z"/>
<path d="M29406 9352 c-3 -5 1 -9 9 -9 8 0 12 4 9 9 -3 4 -7 8 -9 8 -2 0 -6
-4 -9 -8z"/>
<path d="M29438 9343 c-5 -17 43 -18 911 -15 504 1 921 0 926 -2 18 -6 25 -6
23 2 -2 4 -7 6 -12 4 -5 -2 -6 4 -3 13 6 13 -89 15 -917 15 -871 0 -924 -1
-928 -17z"/>
<path d="M51290 9351 c0 -6 5 -13 10 -16 6 -3 10 1 10 9 0 9 -4 16 -10 16 -5
0 -10 -4 -10 -9z"/>
<path d="M51321 9344 c0 -11 3 -14 6 -6 3 7 2 16 -1 19 -3 4 -6 -2 -5 -13z"/>
<path d="M53594 9351 c4 -5 0 -12 -6 -14 -7 -3 552 -5 1242 -4 829 1 1255 5
1255 12 0 7 -424 11 -1248 13 -757 1 -1246 -2 -1243 -7z"/>
<path d="M36440 13643 c-615 -44 -787 -67 -999 -135 -147 -46 -435 -201 -513
-275 -59 -56 -89 -212 -89 -455 0 -237 29 -504 97 -898 81 -473 175 -759 286
-870 111 -111 375 -171 683 -155 522 26 1149 157 1438 301 178 88 269 171 337
306 49 98 73 179 101 334 41 227 37 839 -7 1184 -23 180 -63 309 -121 393 -32
46 -129 117 -204 151 -186 82 -695 142 -1009 119z m495 -399 c167 -20 324 -52
365 -73 20 -10 42 -33 52 -52 41 -85 67 -328 75 -714 7 -361 -13 -572 -69
-722 -24 -67 -58 -107 -123 -148 -290 -185 -1337 -359 -1659 -275 -44 11 -80
21 -81 23 -14 15 -49 101 -73 177 -58 181 -119 502 -167 870 -28 211 -44 561
-28 620 8 31 21 42 118 98 191 109 343 147 725 182 456 43 617 45 865 14z"/>
<path d="M32800 9935 c-24 -25 -42 -45 -39 -45 3 0 25 20 49 45 24 25 42 45
39 45 -3 0 -25 -20 -49 -45z"/>
<path d="M33103 9905 c0 -38 2 -53 4 -32 2 20 2 52 0 70 -2 17 -4 1 -4 -38z"/>
<path d="M32729 9853 c-13 -16 -12 -17 4 -4 16 13 21 21 13 21 -2 0 -10 -8
-17 -17z"/>
<path d="M32700 9810 c-6 -11 -8 -20 -6 -20 3 0 10 9 16 20 6 11 8 20 6 20 -3
0 -10 -9 -16 -20z"/>
<path d="M33091 9814 c0 -11 3 -14 6 -6 3 7 2 16 -1 19 -3 4 -6 -2 -5 -13z"/>
<path d="M32654 9728 c-14 -28 -33 -70 -41 -92 -18 -49 -33 -207 -19 -199 5 4
7 -4 3 -16 -3 -13 -3 -20 0 -17 4 3 16 -2 27 -11 l21 -18 -20 23 c-44 53 -28
196 36 324 16 32 27 58 24 58 -2 0 -16 -23 -31 -52z"/>
<path d="M33066 9745 c-9 -26 -7 -32 5 -12 6 10 9 21 6 23 -2 3 -7 -2 -11 -11z"/>
<path d="M33037 9675 c-9 -19 -15 -35 -12 -35 7 0 37 61 33 66 -3 2 -12 -12
-21 -31z"/>
<path d="M32999 9608 c-7 -13 -25 -39 -40 -59 -16 -20 -29 -40 -29 -44 0 -10
63 72 79 103 6 12 9 22 7 22 -3 0 -11 -10 -17 -22z"/>
<path d="M32884 9459 c-16 -16 -22 -28 -14 -24 13 5 56 55 47 55 -2 0 -16 -14
-33 -31z"/>
<path d="M32836 9422 c-3 -5 1 -9 9 -9 8 0 12 4 9 9 -3 4 -7 8 -9 8 -2 0 -6
-4 -9 -8z"/>
<path d="M32318 9343 c9 -14 25 -16 128 -13 66 2 132 3 147 4 26 0 27 1 11 13
-13 9 -21 10 -31 2 -9 -8 -13 -8 -13 0 0 7 -39 11 -125 11 -115 0 -125 -1
-117 -17z"/>
<path d="M32642 9351 c-11 -7 -11 -9 0 -14 9 -3 15 1 15 9 0 8 -1 14 -1 14 -1
0 -7 -4 -14 -9z"/>
<path d="M32727 9346 c-4 -10 -1 -13 8 -9 8 3 12 9 9 14 -7 12 -11 11 -17 -5z"/>
<path d="M32765 9350 c3 -5 8 -10 11 -10 2 0 4 5 4 10 0 6 -5 10 -11 10 -5 0
-7 -4 -4 -10z"/>
<path d="M32880 9349 c0 -5 -6 -7 -12 -3 -9 5 -10 4 -3 -4 8 -9 269 -12 963
-12 640 -1 952 -4 952 -11 0 -6 5 -7 13 -2 6 4 35 9 62 9 105 3 116 4 110 14
-3 6 -1 10 4 10 6 0 11 -5 11 -11 0 -5 5 -7 10 -4 6 3 10 10 10 15 0 6 -419
10 -1060 10 -745 0 -1060 -3 -1060 -11z"/>
<path d="M32826 9342 c-3 -5 1 -9 9 -9 8 0 12 4 9 9 -3 4 -7 8 -9 8 -2 0 -6
-4 -9 -8z"/>
<path d="M40971 10944 c0 -11 3 -14 6 -6 3 7 2 16 -1 19 -3 4 -6 -2 -5 -13z"/>
<path d="M40972 10900 c0 -14 2 -19 5 -12 2 6 2 18 0 25 -3 6 -5 1 -5 -13z"/>
<path d="M40759 10503 c-13 -16 -12 -17 4 -4 9 7 17 15 17 17 0 8 -8 3 -21
-13z"/>
<path d="M43435 9481 c-3 -5 -2 -12 3 -15 5 -3 9 1 9 9 0 17 -3 19 -12 6z"/>
<path d="M42758 9403 c7 -3 16 -2 19 1 4 3 -2 6 -13 5 -11 0 -14 -3 -6 -6z"/>
<path d="M57370 9348 c0 -13 53 -16 394 -17 353 -2 394 -1 400 14 5 14 -30 16
-379 15 -258 -1 -385 -5 -385 -12 0 -6 -6 -5 -15 2 -12 10 -15 10 -15 -2z"/>
<path d="M58190 9350 c-12 -8 -12 -10 3 -16 10 -4 23 -2 30 5 14 14 30 15 22
1 -9 -14 1 -12 13 3 8 10 6 13 -8 14 -11 1 -22 -2 -25 -8 -4 -5 -11 -9 -16 -9
-6 0 -7 5 -4 10 8 12 4 12 -15 0z"/>
<path d="M58395 9291 c-6 -11 9 -23 19 -14 9 9 7 23 -3 23 -6 0 -12 -4 -16 -9z"/>
<path d="M31390 8931 c0 -6 4 -13 10 -16 6 -3 7 1 4 9 -7 18 -14 21 -14 7z"/>
<path d="M31630 7891 c0 -6 4 -13 10 -16 6 -3 7 1 4 9 -7 18 -14 21 -14 7z"/>
<path d="M59135 16530 c-103 -25 -205 -112 -251 -213 l-28 -62 -8 -320 c-23
-989 -54 -1511 -124 -2075 -140 -1134 -368 -1776 -988 -2785 -150 -245 -176
-330 -142 -465 52 -202 247 -357 641 -508 166 -63 256 -92 600 -191 374 -108
480 -139 675 -201 192 -61 268 -71 356 -45 138 40 183 87 313 326 137 253 429
782 701 1269 130 234 280 507 333 607 477 899 1096 1776 1756 2487 149 161
191 247 191 396 0 314 -236 543 -878 853 -769 369 -1735 679 -2795 896 -193
40 -286 48 -352 31z m297 -406 c1039 -213 1990 -522 2723 -884 448 -221 650
-385 627 -506 -2 -14 -47 -71 -99 -127 -655 -703 -1298 -1610 -1783 -2517 -46
-85 -156 -285 -245 -445 -343 -613 -823 -1479 -868 -1567 -10 -21 -25 -38 -32
-38 -7 0 -98 27 -202 59 -103 32 -348 105 -543 161 -195 56 -436 131 -535 166
-235 85 -433 182 -475 232 -16 20 -30 43 -30 50 0 8 37 73 81 146 202 325 490
853 545 999 12 34 50 127 84 207 326 769 491 1816 540 3430 5 179 10 403 10
498 0 143 2 172 14 172 8 0 93 -16 188 -36z"/>
</g>
</svg>
